<svg width="1920" height="965" viewBox="0 0 1920 965" fill="none" xmlns="http://www.w3.org/2000/svg">
<g filter="url(#filter0_f_16_41)">
<path fill-rule="evenodd" clip-rule="evenodd" d="M2894 1090C2894 1318.33 2654.22 1523.33 2269.75 1668.33C2087.85 1736.67 1868.74 1791.67 1633.1 1828.33C1418.12 1861.67 1182.48 1880 938.568 1880C851.752 1880 764.935 1878.33 682.253 1873.33C603.705 1870 529.291 1863.33 454.877 1855C277.11 1836.67 111.746 1808.33 -41.2161 1773.33C-140.435 1750 -231.385 1725 -318.201 1695C-520.773 1626.67 -690.271 1541.67 -810.16 1446.67C-884.574 1386.67 -942.452 1321.67 -979.659 1253.33C-1008.6 1200 -1021 1146.67 -1021 1090C-1021 933.333 -909.379 788.333 -715.076 666.667C-632.394 615 -537.309 566.667 -425.688 523.333C-74.2888 385 409.402 300 938.568 300C979.909 300 1025.38 300 1066.73 301.667C1289.97 308.333 1500.81 328.333 1695.11 361.667C1728.18 366.667 1761.26 373.333 1794.33 380C1934.89 408.333 2067.18 443.333 2191.2 483.333C2232.54 496.667 2269.75 511.667 2306.96 526.667C2319.36 531.667 2335.9 536.667 2348.3 543.333C2687.3 685 2894 878.333 2894 1090Z" fill="url(#paint0_radial_16_41)"/>
</g>
<g filter="url(#filter1_f_16_41)">
<path fill-rule="evenodd" clip-rule="evenodd" d="M2894 1090C2894 1318.33 2654.22 1523.33 2269.75 1668.33C2087.85 1736.67 1868.74 1791.67 1633.1 1828.33C1418.12 1861.67 1182.48 1880 938.568 1880C851.752 1880 764.935 1878.33 682.253 1873.33C603.705 1870 529.291 1863.33 454.877 1855C277.11 1836.67 111.746 1808.33 -41.2161 1773.33C-140.435 1750 -231.385 1725 -318.201 1695C-520.773 1626.67 -690.271 1541.67 -810.16 1446.67C-884.574 1386.67 -942.452 1321.67 -979.659 1253.33C-1008.6 1200 -1021 1146.67 -1021 1090C-1021 933.333 -909.379 788.333 -715.076 666.667C-632.394 615 -537.309 566.667 -425.688 523.333C-74.2888 385 409.402 300 938.568 300C979.909 300 1025.38 300 1066.73 301.667C1289.97 308.333 1500.81 328.333 1695.11 361.667C1728.18 366.667 1761.26 373.333 1794.33 380C1934.89 408.333 2067.18 443.333 2191.2 483.333C2232.54 496.667 2269.75 511.667 2306.96 526.667C2319.36 531.667 2335.9 536.667 2348.3 543.333C2687.3 685 2894 878.333 2894 1090Z" fill="url(#paint1_radial_16_41)"/>
</g>
<path fill-rule="evenodd" clip-rule="evenodd" d="M2894 1090C2894 1318.33 2654.22 1523.33 2269.75 1668.33C2087.85 1736.67 1868.74 1791.67 1633.1 1828.33C1418.12 1861.67 1182.48 1880 938.568 1880C851.752 1880 764.935 1878.33 682.253 1873.33C603.705 1870 529.291 1863.33 454.877 1855C277.11 1836.67 111.746 1808.33 -41.2161 1773.33C-140.435 1750 -231.385 1725 -318.201 1695C-520.773 1626.67 -690.271 1541.67 -810.16 1446.67C-884.574 1386.67 -942.452 1321.67 -979.659 1253.33C-1008.6 1200 -1021 1146.67 -1021 1090C-1021 933.333 -909.379 788.333 -715.076 666.667C-632.394 615 -537.309 566.667 -425.688 523.333C-74.2888 385 409.402 300 938.568 300C979.909 300 1025.38 300 1066.73 301.667C1289.97 308.333 1500.81 328.333 1695.11 361.667C1728.18 366.667 1761.26 373.333 1794.33 380C1934.89 408.333 2067.18 443.333 2191.2 483.333C2232.54 496.667 2269.75 511.667 2306.96 526.667C2319.36 531.667 2335.9 536.667 2348.3 543.333C2687.3 685 2894 878.333 2894 1090Z" fill="url(#paint2_radial_16_41)"/>
<path opacity="0.5" fill-rule="evenodd" clip-rule="evenodd" d="M-1000.33 1207.73L-940.292 1331.27C-940.292 1331.27 -610.086 1418.08 159.145 1386.36C928.377 1354.64 1108.49 1187.69 1408.68 1090.87C1708.86 994.036 2290.48 917.24 2440.57 840.444C2590.67 765.317 2463.09 613.395 2463.09 613.395L2403.05 576.667C2403.05 576.667 2511.87 706.886 2380.54 802.046C2252.96 897.206 1678.85 942.282 1367.4 1064.15C1055.96 1186.03 421.81 1279.52 -122.281 1281.19C-655.114 1282.85 -1000.33 1207.73 -1000.33 1207.73Z" fill="#4E79A6"/>
<path opacity="0.5" fill-rule="evenodd" clip-rule="evenodd" d="M-669.601 1532.69L-549.132 1611.35C-549.132 1611.35 4.27316 1683.31 836.262 1611.35C1668.25 1539.39 2296.95 1330.2 2586.83 1211.37C2880.47 1092.55 2842.82 926.873 2842.82 926.873L2816.47 876.667C2816.47 876.667 2763.77 1049.04 2440.01 1211.37C2116.25 1373.71 1574.13 1520.98 794.851 1581.23C19.3316 1643.15 -669.601 1532.69 -669.601 1532.69Z" fill="#386293"/>
<path opacity="0.5" fill-rule="evenodd" clip-rule="evenodd" d="M-876.306 784.074C-876.306 784.074 185.369 947.294 1004.59 874.752C1823.8 803.859 2044.22 566.448 2058.91 444.446L1908.3 393.337C1908.3 393.337 1911.97 637.342 1393.99 785.723C876.009 932.456 -453.84 845.076 -810.181 718.127L-876.306 784.074Z" fill="#2A3D67"/>
<g filter="url(#filter2_f_16_41)">
<path d="M1707.88 398.964C1758.78 419.987 1783.28 451.796 1833.55 476.398C1870.25 494.356 1908.02 462.623 1928.86 514.545C1949.32 565.516 1931.63 615.14 1912.88 667.715L1912.27 669.412C1862.76 808.284 1756.97 663.654 1658.46 643.222C1528.67 616.299 1414.11 692.24 1330.88 529.349C1307.79 484.164 1298.17 441.856 1284.99 398.964C1271.81 356.072 1393.53 384.2 1463.25 382.452C1558.86 380.056 1615.26 360.7 1707.88 398.964Z" fill="#81868F"/>
</g>
<defs>
<filter id="filter0_f_16_41" x="-1221" y="100" width="4315" height="1980" filterUnits="userSpaceOnUse" color-interpolation-filters="sRGB">
<feFlood flood-opacity="0" result="BackgroundImageFix"/>
<feBlend mode="normal" in="SourceGraphic" in2="BackgroundImageFix" result="shape"/>
<feGaussianBlur stdDeviation="100" result="effect1_foregroundBlur_16_41"/>
</filter>
<filter id="filter1_f_16_41" x="-1321" y="0" width="4515" height="2180" filterUnits="userSpaceOnUse" color-interpolation-filters="sRGB">
<feFlood flood-opacity="0" result="BackgroundImageFix"/>
<feBlend mode="normal" in="SourceGraphic" in2="BackgroundImageFix" result="shape"/>
<feGaussianBlur stdDeviation="150" result="effect1_foregroundBlur_16_41"/>
</filter>
<filter id="filter2_f_16_41" x="934" y="25" width="1354" height="1054" filterUnits="userSpaceOnUse" color-interpolation-filters="sRGB">
<feFlood flood-opacity="0" result="BackgroundImageFix"/>
<feBlend mode="normal" in="SourceGraphic" in2="BackgroundImageFix" result="shape"/>
<feGaussianBlur stdDeviation="175" result="effect1_foregroundBlur_16_41"/>
</filter>
<radialGradient id="paint0_radial_16_41" cx="0" cy="0" r="1" gradientUnits="userSpaceOnUse" gradientTransform="translate(381.625 866.237) scale(2872.92 1158.22)">
<stop offset="0.00558659" stop-color="#48719F"/>
<stop offset="0.348958" stop-color="#386294"/>
<stop offset="0.692708" stop-color="#264063"/>
<stop offset="1" stop-color="#19344F"/>
</radialGradient>
<radialGradient id="paint1_radial_16_41" cx="0" cy="0" r="1" gradientUnits="userSpaceOnUse" gradientTransform="translate(381.625 866.237) scale(2872.92 1158.22)">
<stop offset="0.00558659" stop-color="#48719F"/>
<stop offset="0.348958" stop-color="#386294"/>
<stop offset="0.692708" stop-color="#264063"/>
<stop offset="1" stop-color="#19344F"/>
</radialGradient>
<radialGradient id="paint2_radial_16_41" cx="0" cy="0" r="1" gradientUnits="userSpaceOnUse" gradientTransform="translate(381.625 866.237) scale(2872.92 1158.22)">
<stop offset="0.00558659" stop-color="#48719F"/>
<stop offset="0.348958" stop-color="#386294"/>
<stop offset="0.692708" stop-color="#264063"/>
<stop offset="1" stop-color="#19344F"/>
</radialGradient>
</defs>
</svg>
