<svg width="1076" height="1099" viewBox="0 0 1076 1099" fill="none" xmlns="http://www.w3.org/2000/svg">
<g filter="url(#filter0_f_10_65)">
<circle cx="559" cy="540" r="234" fill="url(#paint0_linear_10_65)"/>
</g>
<g filter="url(#filter1_f_10_65)">
<circle cx="559" cy="540" r="259" fill="url(#paint1_linear_10_65)"/>
</g>
<path opacity="0.92" fill-rule="evenodd" clip-rule="evenodd" d="M793 540C793 607.713 764.469 668.516 718.451 711.354C696.363 731.622 670.593 748.205 642.062 758.799C616.292 768.472 588.221 774 559.23 774C548.646 774 538.522 773.079 528.398 772.157C519.195 770.775 509.991 769.394 501.248 767.091C480.08 761.563 460.292 753.272 441.885 742.677C430.381 735.768 419.336 728.398 408.752 719.646C384.363 699.378 364.575 674.043 350.31 645.945C341.106 627.98 334.664 609.094 330.062 588.827C326.841 573.165 325 557.043 325 540.461C325 494.398 338.345 451.098 361.354 414.709C371.018 399.508 382.522 385.228 395.867 372.331C438.204 331.335 495.726 306 558.77 306C563.832 306 568.894 306 573.956 306.461C600.646 308.303 625.956 314.291 649.425 323.965C653.566 325.807 657.708 327.65 661.389 329.492C678.416 337.783 694.062 347.917 708.327 360.354C713.389 364.5 717.991 368.646 722.133 372.791C723.973 374.173 725.354 376.016 726.735 377.858C768.15 419.776 793 476.894 793 540Z" fill="url(#paint2_radial_10_65)"/>
<path fill-rule="evenodd" clip-rule="evenodd" d="M776.894 540C776.894 603.106 750.204 659.764 707.407 699.838C687.16 718.724 662.77 733.925 636.54 744.059C612.611 753.271 586.381 758.338 559.23 758.338C549.567 758.338 539.903 757.878 530.699 756.496C521.956 755.574 513.673 753.732 505.39 751.429C485.602 746.362 467.195 738.531 450.168 728.858C439.124 722.409 429 715.5 419.337 707.208C396.788 688.323 377.921 664.83 364.575 638.574C356.292 621.992 349.85 604.027 345.708 585.141C342.487 570.401 341.106 555.661 341.106 540C341.106 496.7 353.531 456.626 375.16 423C384.363 408.72 394.947 395.362 407.372 383.385C446.487 345.153 500.328 321.661 559.23 321.661C563.832 321.661 568.894 321.661 573.496 322.122C598.345 323.964 621.814 329.492 643.443 338.704C647.124 340.086 650.806 341.929 654.487 343.771C670.133 351.602 684.859 361.275 698.664 372.33C703.266 376.015 707.407 380.161 711.549 384.307C712.929 385.689 714.77 387.071 716.151 388.913C753.885 428.067 776.894 481.5 776.894 540Z" fill="url(#paint3_radial_10_65)"/>
<path opacity="0.4" fill-rule="evenodd" clip-rule="evenodd" d="M776.895 540C776.895 603.106 750.204 659.764 707.408 699.838C687.16 718.724 662.771 733.925 636.54 744.059C612.611 753.271 586.381 758.338 559.231 758.338C549.567 758.338 539.903 757.878 530.7 756.496C501.709 752.811 474.558 743.138 450.169 728.858C457.532 727.016 464.434 724.712 471.797 722.87C489.284 718.264 505.85 713.197 523.337 711.354C530.24 710.433 541.744 707.669 541.744 698.917C541.744 696.614 541.284 695.693 542.664 694.311C544.505 692.929 546.346 693.39 548.186 692.929C553.248 692.008 557.39 686.48 560.611 682.795C565.673 676.807 571.656 670.819 577.638 665.752C589.142 655.618 604.788 650.551 612.151 635.811C613.992 631.665 614.452 627.519 615.372 623.374C616.293 618.307 619.974 615.083 624.576 612.779C629.638 609.555 635.62 608.634 640.222 604.488C644.824 600.803 646.664 594.815 648.505 589.287C651.266 580.535 650.806 571.323 652.187 562.11C652.647 557.504 654.027 552.897 654.487 548.291C654.487 543.685 653.107 540.46 651.266 536.315C648.965 529.405 645.284 522.035 642.523 515.126C641.602 512.362 639.762 510.52 637.461 508.677C634.24 505.913 631.939 502.689 628.717 499.925C626.417 498.083 623.656 496.701 621.815 494.858C619.974 493.476 618.594 491.173 617.213 489.33C614.452 486.567 611.691 483.342 608.01 481.039C599.266 476.433 594.204 467.681 584.08 465.838C571.656 463.535 561.532 450.638 548.647 455.244C540.363 458.008 532.08 461.232 522.877 463.535C517.355 464.917 510.912 464.917 505.39 466.76C502.169 468.142 498.487 470.905 496.186 473.669C492.505 477.815 491.125 483.342 487.903 487.488C485.602 490.712 484.222 493.937 481.921 497.622C478.24 504.531 478.24 511.441 478.24 519.271C478.24 523.417 477.779 528.023 478.24 532.169C478.7 537.236 481.001 540.921 484.222 545.067C486.063 547.37 487.443 551.515 489.744 553.358C491.125 554.279 492.045 553.819 493.425 554.74C495.726 555.661 496.647 556.582 498.487 557.964C504.009 562.11 509.992 566.256 516.894 567.638C520.576 568.559 523.797 569.019 527.018 570.401C529.779 571.783 533.001 572.244 536.222 572.705C543.585 573.626 550.027 570.862 555.549 566.256C559.231 563.492 561.532 561.189 564.293 557.504C565.673 555.661 566.594 554.279 568.894 552.897C570.275 551.976 571.656 551.055 573.496 551.516C574.877 551.516 576.257 553.358 578.098 552.437C579.479 551.516 580.399 547.37 580.859 546.449C581.779 544.145 582.24 541.382 583.16 539.539C585.001 535.854 587.762 536.775 591.443 536.775C593.744 536.775 596.965 536.315 598.806 534.472C600.187 532.169 599.726 528.023 598.806 525.72C596.965 522.496 592.824 519.732 590.523 517.429C588.682 515.586 587.302 513.283 585.461 510.98C582.7 506.834 581.319 498.543 575.337 497.622C573.036 497.161 569.815 497.622 567.514 497.622C564.753 497.622 562.912 497.161 560.151 496.24C556.009 495.319 552.328 493.937 547.726 493.937C542.204 493.937 537.602 495.319 532.54 497.622C530.24 498.543 528.859 498.082 526.558 498.543C524.257 499.464 520.576 504.071 520.116 506.835C519.195 511.901 521.036 516.508 526.098 518.811C527.479 519.271 531.16 519.732 532.54 521.114C533.921 522.956 533.001 525.26 532.08 527.102C530.24 532.169 531.16 538.157 537.142 539.079C541.284 539.539 545.425 537.236 548.647 535.393C551.408 534.012 556.47 533.551 556.47 529.866C556.01 531.709 553.248 530.787 551.868 530.787C548.647 530.787 546.806 530.787 544.505 528.945C542.204 527.102 541.744 525.26 540.824 522.957C540.363 522.035 539.903 520.193 538.983 519.271C538.523 518.35 536.682 517.429 536.682 516.508C534.841 512.362 548.647 510.059 550.948 509.598C556.47 509.138 560.611 512.823 563.833 516.968C565.213 518.811 567.974 521.575 567.974 523.878C567.974 526.181 566.133 529.866 565.213 532.169C564.293 534.472 563.833 536.315 562.912 538.618C561.992 541.382 560.611 541.842 558.31 543.224C556.009 544.606 554.169 546.449 552.328 548.291C550.027 550.134 547.266 550.594 544.505 551.055C540.363 551.976 536.682 549.673 532.54 550.134C528.859 550.134 526.098 552.437 522.877 552.437C515.514 552.897 509.532 551.976 506.771 544.145C505.85 540.921 506.771 539.539 508.611 537.236C510.912 534.933 509.992 533.09 509.071 530.327C507.691 527.102 506.31 524.338 505.85 521.114C505.39 517.89 507.231 514.205 507.691 510.519C508.151 507.756 506.771 503.61 507.691 501.307C508.611 499.004 513.213 496.701 515.514 494.858C518.275 493.016 521.496 492.094 524.717 490.252C528.399 488.409 531.16 488.87 534.841 488.409C538.063 487.949 539.443 485.645 542.204 484.264C545.425 482.882 549.567 483.803 552.788 483.803C556.47 483.803 558.31 485.185 561.532 486.567C564.753 487.949 567.054 490.252 570.735 490.712C574.877 491.173 579.018 490.252 583.16 490.712C587.302 491.173 588.682 493.016 591.903 495.319C595.125 497.622 597.425 499.004 600.187 502.689C601.567 504.531 602.027 506.374 603.408 507.756C604.788 509.598 605.709 510.519 606.629 512.823C607.549 515.586 609.39 518.35 610.31 521.575C610.771 523.417 611.231 524.799 611.231 526.642C610.771 528.945 609.85 531.248 609.85 533.551C609.85 539.079 607.549 543.224 605.248 548.291C602.948 553.358 600.647 558.425 598.346 563.492C596.965 566.716 596.505 573.626 591.903 574.547C589.602 575.008 587.302 574.547 585.001 575.929C582.7 577.311 582.24 580.075 580.399 581.456C578.558 583.299 576.257 582.378 573.956 582.378C570.275 582.378 567.054 582.838 563.833 584.22C559.691 586.063 556.93 589.748 553.248 592.051C550.027 593.433 546.346 595.275 542.664 595.736C539.903 596.197 537.602 595.736 534.841 596.657C528.859 598.5 524.257 602.185 518.275 604.488C513.673 605.87 508.151 607.252 503.549 606.791C501.709 606.791 499.868 605.87 498.027 605.409C495.266 604.488 492.045 604.488 488.824 603.567C486.523 603.106 484.222 602.185 481.921 601.264C479.62 600.342 478.24 598.5 475.939 597.579C470.877 595.275 465.815 595.275 461.213 591.59C455.231 586.984 450.169 581.456 443.726 577.311C440.965 575.468 439.585 573.165 437.744 570.862C436.363 568.559 434.523 567.177 432.682 565.334C429.921 562.571 428.54 558.886 427.16 555.661C424.859 550.134 422.098 544.606 419.797 538.618C417.036 530.327 413.355 522.496 411.514 513.744C410.133 506.374 411.974 499.925 411.974 493.016C411.974 491.173 412.434 489.331 411.974 487.488C411.514 484.724 409.213 482.882 407.372 481.039C401.85 474.59 396.788 468.142 393.567 459.85C390.346 451.559 388.965 441.425 391.266 432.673C393.567 424.842 398.629 420.697 405.071 415.63C411.054 411.023 418.417 407.338 425.319 404.114C428.54 402.271 431.302 400.429 434.523 399.047C437.744 397.665 441.886 397.205 445.567 396.283C448.788 395.362 451.089 395.362 453.85 393.059C456.611 391.216 459.832 388.913 462.133 386.61C465.355 383.846 467.655 380.622 472.257 379.701C477.779 378.319 484.222 376.476 489.744 375.094C497.107 373.712 505.85 375.555 513.213 376.476C520.576 377.397 527.479 377.397 534.841 377.397C540.824 377.397 546.806 376.476 552.788 376.016C555.089 376.016 557.39 376.476 559.691 376.016C563.372 376.016 566.594 374.173 570.275 373.252C577.178 371.409 583.16 368.185 590.063 365.882C595.125 364.039 600.187 364.5 605.248 363.579C610.771 362.657 616.293 360.815 622.275 360.354C627.337 360.354 632.399 358.512 637.001 360.815C645.284 365.882 650.346 374.634 658.629 379.701C667.372 384.768 677.036 388.453 686.24 392.138C689.461 393.519 693.142 391.677 695.903 393.059C697.284 393.519 699.125 395.823 700.045 397.205C701.425 396.283 700.965 394.441 700.965 393.059C700.965 390.756 702.346 388.913 702.346 386.61C702.346 383.846 702.806 380.622 702.346 377.858C701.886 376.476 700.045 373.252 700.045 370.949C704.647 374.634 708.788 378.779 712.93 382.925C752.045 423.921 776.895 479.197 776.895 540Z" fill="url(#paint4_radial_10_65)"/>
<path opacity="0.3" fill-rule="evenodd" clip-rule="evenodd" d="M413.814 606.331C412.433 610.937 411.973 616.004 411.513 621.071C412.894 620.611 414.734 623.835 416.115 624.296C418.876 625.217 421.177 625.217 423.478 626.599C425.779 627.981 428.079 631.205 430.38 631.666C431.761 632.126 434.062 631.666 435.902 631.666C439.584 631.666 442.805 631.666 446.026 632.587C449.708 633.508 454.31 634.429 457.991 633.969C460.292 633.508 464.433 632.587 466.274 630.744C468.115 628.902 469.035 624.296 469.495 621.532C469.956 613.701 463.973 605.87 457.991 601.264C454.77 598.961 451.549 598.961 447.867 597.118C443.725 594.815 440.044 593.894 435.442 592.512C432.681 591.591 429 590.67 426.239 590.67C423.478 590.67 420.256 592.512 417.956 592.973C415.195 593.894 412.894 593.894 411.053 596.197C409.212 599.422 410.133 603.107 413.814 606.331Z" fill="url(#paint5_linear_10_65)"/>
<path opacity="0.3" fill-rule="evenodd" clip-rule="evenodd" d="M475.478 633.968C474.097 635.811 461.212 646.866 467.655 651.472C468.115 651.933 470.876 652.393 471.336 652.393C473.177 652.854 473.637 652.394 475.478 651.472C478.699 649.63 479.159 646.405 478.239 642.72C478.239 641.799 477.319 639.956 476.858 639.035C476.398 637.653 475.018 637.653 474.558 635.811L475.478 633.968Z" fill="url(#paint6_linear_10_65)"/>
<path opacity="0.3" fill-rule="evenodd" clip-rule="evenodd" d="M549.567 351.142C551.867 349.76 559.23 345.614 563.372 345.154C564.752 345.154 566.593 345.614 567.974 345.614C571.195 345.614 573.956 345.154 576.257 347.457C578.097 349.299 579.018 351.142 577.637 353.445C575.797 356.669 571.195 358.972 567.974 360.354C561.071 364.5 551.867 368.185 543.584 367.264C537.142 366.803 531.159 361.736 525.177 358.512C521.036 356.209 513.213 352.063 518.274 346.996C522.416 342.85 528.859 340.547 534.841 340.087C537.602 340.087 544.044 339.165 545.885 340.547C548.186 342.39 545.885 349.76 550.487 349.299L549.567 351.142Z" fill="url(#paint7_linear_10_65)"/>
<path fill-rule="evenodd" clip-rule="evenodd" d="M337.886 495.779C341.107 540.46 445.107 468.142 545.886 436.358C664.151 398.586 753.886 481.039 766.771 476.433C787.479 469.523 703.266 306.46 568.434 308.764C416.576 310.606 332.364 423.921 337.886 495.779Z" fill="url(#paint8_linear_10_65)"/>
<path opacity="0.5" fill-rule="evenodd" clip-rule="evenodd" d="M327.301 572.705L334.664 606.792C334.664 606.792 375.159 630.744 469.496 621.993C563.832 613.241 585.92 567.178 622.734 540.461C659.549 513.744 730.876 492.555 749.283 471.366C767.69 450.638 752.044 408.721 752.044 408.721L744.681 398.587C744.681 398.587 758.027 434.516 741.92 460.772C726.274 487.028 655.867 499.465 617.673 533.091C579.478 566.717 501.708 592.512 434.982 592.973C369.637 593.433 327.301 572.705 327.301 572.705Z" fill="#BDFFE8" fill-opacity="0.5"/>
<path opacity="0.5" fill-rule="evenodd" clip-rule="evenodd" d="M358.594 661.145L373.32 682.795C373.32 682.795 440.966 702.602 542.665 682.795C644.364 662.988 721.214 605.409 756.647 572.704C792.541 540 787.939 494.397 787.939 494.397L784.718 480.578C784.718 480.578 778.276 528.023 738.7 572.704C699.125 617.385 632.86 657.921 537.603 674.504C442.807 691.547 358.594 661.145 358.594 661.145Z" fill="#BDFFE8" fill-opacity="0.5"/>
<path opacity="0.5" fill-rule="evenodd" clip-rule="evenodd" d="M341.106 455.244C341.106 455.244 474.098 500.846 576.717 480.578C679.337 460.771 706.947 394.441 708.788 360.354L689.921 346.074C689.921 346.074 690.381 414.248 625.496 455.704C560.611 496.7 394.027 472.287 349.39 436.819L341.106 455.244Z" fill="#BDFFE8" fill-opacity="0.5"/>
<path fill-rule="evenodd" clip-rule="evenodd" d="M355.372 535.393C356.753 543.685 375.16 532.169 389.425 504.531C403.231 476.893 405.992 419.315 398.629 414.708C391.726 409.181 345.248 478.736 355.372 535.393Z" fill="white"/>
<path fill-rule="evenodd" clip-rule="evenodd" d="M356.753 547.37C347.089 549.212 347.549 568.098 353.532 575.929C359.514 583.76 367.337 580.075 367.797 563.492C368.257 553.819 364.576 545.988 356.753 547.37Z" fill="white"/>
<path fill-rule="evenodd" clip-rule="evenodd" d="M632.858 328.57C632.858 328.57 642.061 330.874 644.823 343.311C644.823 343.771 635.619 341.007 632.858 328.57Z" fill="white"/>
<path fill-rule="evenodd" clip-rule="evenodd" d="M463.053 332.717C463.053 332.717 469.956 324.426 483.761 320.741C494.805 317.977 501.248 318.437 503.549 317.977C503.549 317.977 480.08 334.099 463.053 332.717Z" fill="white"/>
<path d="M93.3047 457.734C97.7266 457.734 100.953 458.688 102.984 460.594C105.016 462.484 106.031 465.094 106.031 468.422C106.031 469.922 105.805 471.359 105.352 472.734C104.898 474.094 104.156 475.305 103.125 476.367C102.109 477.43 100.75 478.273 99.0469 478.898C97.3438 479.508 95.2422 479.812 92.7422 479.812H89.625V492H82.3594V457.734H93.3047ZM92.9297 463.688H89.625V473.859H92.0156C93.375 473.859 94.5547 473.68 95.5547 473.32C96.5547 472.961 97.3281 472.398 97.875 471.633C98.4219 470.867 98.6953 469.883 98.6953 468.68C98.6953 466.992 98.2266 465.742 97.2891 464.93C96.3516 464.102 94.8984 463.688 92.9297 463.688ZM135.75 478.852C135.75 481.039 135.453 482.977 134.859 484.664C134.281 486.352 133.43 487.781 132.305 488.953C131.195 490.109 129.852 490.984 128.273 491.578C126.711 492.172 124.945 492.469 122.977 492.469C121.133 492.469 119.438 492.172 117.891 491.578C116.359 490.984 115.023 490.109 113.883 488.953C112.758 487.781 111.883 486.352 111.258 484.664C110.648 482.977 110.344 481.039 110.344 478.852C110.344 475.945 110.859 473.484 111.891 471.469C112.922 469.453 114.391 467.922 116.297 466.875C118.203 465.828 120.477 465.305 123.117 465.305C125.57 465.305 127.742 465.828 129.633 466.875C131.539 467.922 133.031 469.453 134.109 471.469C135.203 473.484 135.75 475.945 135.75 478.852ZM117.633 478.852C117.633 480.57 117.82 482.016 118.195 483.188C118.57 484.359 119.156 485.242 119.953 485.836C120.75 486.43 121.789 486.727 123.07 486.727C124.336 486.727 125.359 486.43 126.141 485.836C126.938 485.242 127.516 484.359 127.875 483.188C128.25 482.016 128.438 480.57 128.438 478.852C128.438 477.117 128.25 475.68 127.875 474.539C127.516 473.383 126.938 472.516 126.141 471.938C125.344 471.359 124.305 471.07 123.023 471.07C121.133 471.07 119.758 471.719 118.898 473.016C118.055 474.312 117.633 476.258 117.633 478.852ZM156.281 465.305C156.641 465.305 157.055 465.328 157.523 465.375C158.008 465.406 158.398 465.453 158.695 465.516L158.156 472.219C157.922 472.141 157.586 472.086 157.148 472.055C156.727 472.008 156.359 471.984 156.047 471.984C155.125 471.984 154.227 472.102 153.352 472.336C152.492 472.57 151.719 472.953 151.031 473.484C150.344 474 149.797 474.688 149.391 475.547C149 476.391 148.805 477.43 148.805 478.664V492H141.656V465.797H147.07L148.125 470.203H148.477C148.992 469.312 149.633 468.5 150.398 467.766C151.18 467.016 152.062 466.422 153.047 465.984C154.047 465.531 155.125 465.305 156.281 465.305ZM174.492 486.773C175.273 486.773 176.031 486.695 176.766 486.539C177.516 486.383 178.258 486.188 178.992 485.953V491.273C178.227 491.617 177.273 491.898 176.133 492.117C175.008 492.352 173.773 492.469 172.43 492.469C170.867 492.469 169.461 492.219 168.211 491.719C166.977 491.203 166 490.32 165.281 489.07C164.578 487.805 164.227 486.047 164.227 483.797V471.164H160.805V468.141L164.742 465.75L166.805 460.219H171.375V465.797H178.711V471.164H171.375V483.797C171.375 484.797 171.656 485.547 172.219 486.047C172.797 486.531 173.555 486.773 174.492 486.773ZM198.797 471.164H192.609V492H185.461V471.164H181.523V467.719L185.461 465.797V463.875C185.461 461.641 185.836 459.906 186.586 458.672C187.352 457.422 188.422 456.547 189.797 456.047C191.188 455.531 192.828 455.273 194.719 455.273C196.109 455.273 197.375 455.391 198.516 455.625C199.656 455.844 200.586 456.094 201.305 456.375L199.477 461.625C198.93 461.453 198.336 461.297 197.695 461.156C197.055 461.016 196.32 460.945 195.492 460.945C194.492 460.945 193.758 461.25 193.289 461.859C192.836 462.453 192.609 463.219 192.609 464.156V465.797H198.797V471.164ZM226.734 478.852C226.734 481.039 226.438 482.977 225.844 484.664C225.266 486.352 224.414 487.781 223.289 488.953C222.18 490.109 220.836 490.984 219.258 491.578C217.695 492.172 215.93 492.469 213.961 492.469C212.117 492.469 210.422 492.172 208.875 491.578C207.344 490.984 206.008 490.109 204.867 488.953C203.742 487.781 202.867 486.352 202.242 484.664C201.633 482.977 201.328 481.039 201.328 478.852C201.328 475.945 201.844 473.484 202.875 471.469C203.906 469.453 205.375 467.922 207.281 466.875C209.188 465.828 211.461 465.305 214.102 465.305C216.555 465.305 218.727 465.828 220.617 466.875C222.523 467.922 224.016 469.453 225.094 471.469C226.188 473.484 226.734 475.945 226.734 478.852ZM208.617 478.852C208.617 480.57 208.805 482.016 209.18 483.188C209.555 484.359 210.141 485.242 210.938 485.836C211.734 486.43 212.773 486.727 214.055 486.727C215.32 486.727 216.344 486.43 217.125 485.836C217.922 485.242 218.5 484.359 218.859 483.188C219.234 482.016 219.422 480.57 219.422 478.852C219.422 477.117 219.234 475.68 218.859 474.539C218.5 473.383 217.922 472.516 217.125 471.938C216.328 471.359 215.289 471.07 214.008 471.07C212.117 471.07 210.742 471.719 209.883 473.016C209.039 474.312 208.617 476.258 208.617 478.852ZM239.789 492H232.641V455.531H239.789V492ZM254.461 465.797V492H247.312V465.797H254.461ZM250.898 455.531C251.961 455.531 252.875 455.781 253.641 456.281C254.406 456.766 254.789 457.68 254.789 459.023C254.789 460.352 254.406 461.273 253.641 461.789C252.875 462.289 251.961 462.539 250.898 462.539C249.82 462.539 248.898 462.289 248.133 461.789C247.383 461.273 247.008 460.352 247.008 459.023C247.008 457.68 247.383 456.766 248.133 456.281C248.898 455.781 249.82 455.531 250.898 455.531ZM285.797 478.852C285.797 481.039 285.5 482.977 284.906 484.664C284.328 486.352 283.477 487.781 282.352 488.953C281.242 490.109 279.898 490.984 278.32 491.578C276.758 492.172 274.992 492.469 273.023 492.469C271.18 492.469 269.484 492.172 267.938 491.578C266.406 490.984 265.07 490.109 263.93 488.953C262.805 487.781 261.93 486.352 261.305 484.664C260.695 482.977 260.391 481.039 260.391 478.852C260.391 475.945 260.906 473.484 261.938 471.469C262.969 469.453 264.438 467.922 266.344 466.875C268.25 465.828 270.523 465.305 273.164 465.305C275.617 465.305 277.789 465.828 279.68 466.875C281.586 467.922 283.078 469.453 284.156 471.469C285.25 473.484 285.797 475.945 285.797 478.852ZM267.68 478.852C267.68 480.57 267.867 482.016 268.242 483.188C268.617 484.359 269.203 485.242 270 485.836C270.797 486.43 271.836 486.727 273.117 486.727C274.383 486.727 275.406 486.43 276.188 485.836C276.984 485.242 277.562 484.359 277.922 483.188C278.297 482.016 278.484 480.57 278.484 478.852C278.484 477.117 278.297 475.68 277.922 474.539C277.562 473.383 276.984 472.516 276.188 471.938C275.391 471.359 274.352 471.07 273.07 471.07C271.18 471.07 269.805 471.719 268.945 473.016C268.102 474.312 267.68 476.258 267.68 478.852Z" fill="white"/>
<defs>
<filter id="filter0_f_10_65" x="175" y="156" width="768" height="768" filterUnits="userSpaceOnUse" color-interpolation-filters="sRGB">
<feFlood flood-opacity="0" result="BackgroundImageFix"/>
<feBlend mode="normal" in="SourceGraphic" in2="BackgroundImageFix" result="shape"/>
<feGaussianBlur stdDeviation="75" result="effect1_foregroundBlur_10_65"/>
</filter>
<filter id="filter1_f_10_65" x="0" y="-19" width="1118" height="1118" filterUnits="userSpaceOnUse" color-interpolation-filters="sRGB">
<feFlood flood-opacity="0" result="BackgroundImageFix"/>
<feBlend mode="normal" in="SourceGraphic" in2="BackgroundImageFix" result="shape"/>
<feGaussianBlur stdDeviation="150" result="effect1_foregroundBlur_10_65"/>
</filter>
<linearGradient id="paint0_linear_10_65" x1="406.5" y1="360.5" x2="733.5" y2="693.5" gradientUnits="userSpaceOnUse">
<stop stop-color="#01C7C1"/>
<stop offset="1" stop-color="#BE98F1"/>
</linearGradient>
<linearGradient id="paint1_linear_10_65" x1="390.207" y1="341.323" x2="752.143" y2="709.9" gradientUnits="userSpaceOnUse">
<stop stop-color="#01C7C1"/>
<stop offset="1" stop-color="#BE98F1"/>
</linearGradient>
<radialGradient id="paint2_radial_10_65" cx="0" cy="0" r="1" gradientUnits="userSpaceOnUse" gradientTransform="translate(559.017 540.065) scale(233.952 234.182)">
<stop stop-color="#004858"/>
<stop offset="1" stop-color="#008BAB"/>
</radialGradient>
<radialGradient id="paint3_radial_10_65" cx="0" cy="0" r="1" gradientUnits="userSpaceOnUse" gradientTransform="translate(497.236 478.156) scale(319.791 320.106)">
<stop offset="0.00558659" stop-color="#00CEC0"/>
<stop offset="0.2576" stop-color="#00CCC0"/>
<stop offset="0.3833" stop-color="#00C4C1"/>
<stop offset="0.4811" stop-color="#00B7C2"/>
<stop offset="0.5645" stop-color="#00A4C4"/>
<stop offset="0.6387" stop-color="#008CC6"/>
<stop offset="0.7054" stop-color="#006EC8"/>
<stop offset="0.7179" stop-color="#0068C9"/>
<stop offset="0.7438" stop-color="#0767CB"/>
<stop offset="0.7813" stop-color="#1A66CF"/>
<stop offset="0.8259" stop-color="#3A63D6"/>
<stop offset="0.8759" stop-color="#6660E0"/>
<stop offset="0.9304" stop-color="#9E5BEC"/>
<stop offset="0.9879" stop-color="#E255FC"/>
<stop offset="1" stop-color="#F154FF"/>
</radialGradient>
<radialGradient id="paint4_radial_10_65" cx="0" cy="0" r="1" gradientUnits="userSpaceOnUse" gradientTransform="translate(583.28 559.577) scale(196.146 196.339)">
<stop stop-color="#1372B3"/>
<stop offset="1" stop-color="white"/>
</radialGradient>
<linearGradient id="paint5_linear_10_65" x1="410.256" y1="612.547" x2="469.565" y2="612.547" gradientUnits="userSpaceOnUse">
<stop stop-color="#B8C2FF"/>
<stop offset="1" stop-color="#7D72B3"/>
</linearGradient>
<linearGradient id="paint6_linear_10_65" x1="465.644" y1="643.336" x2="477.863" y2="643.336" gradientUnits="userSpaceOnUse">
<stop stop-color="#B8C2FF"/>
<stop offset="1" stop-color="#7D72B3"/>
</linearGradient>
<linearGradient id="paint7_linear_10_65" x1="517.01" y1="354.08" x2="578.426" y2="354.08" gradientUnits="userSpaceOnUse">
<stop stop-color="#B8C2FF"/>
<stop offset="1" stop-color="#7D72B3"/>
</linearGradient>
<linearGradient id="paint8_linear_10_65" x1="424.86" y1="342.982" x2="654.307" y2="636.974" gradientUnits="userSpaceOnUse">
<stop offset="0.0167598" stop-color="#B1FDF9"/>
<stop offset="1" stop-color="#37C7D1" stop-opacity="0"/>
</linearGradient>
</defs>
</svg>
