<svg width="504" height="721" viewBox="0 0 504 721" fill="none" xmlns="http://www.w3.org/2000/svg">
<g filter="url(#filter0_f_13_249)">
<path fill-rule="evenodd" clip-rule="evenodd" d="M520 360.168C520 375.374 517.973 390.58 513.918 404.434C505.808 432.818 489.926 457.824 468.976 477.422C454.108 491.277 436.198 502.428 416.6 509.862C399.028 516.62 379.768 520.337 359.831 520.337C357.128 520.337 354.087 520.337 351.383 519.999C347.328 519.661 342.936 519.323 338.881 518.985C308.131 514.93 279.747 502.09 257.107 482.829C248.659 475.733 240.887 467.623 233.791 458.837C228.722 452.079 223.992 445.321 219.937 437.887C218.923 436.198 217.909 434.17 216.895 432.481C216.895 432.481 216.895 432.481 216.895 432.143C215.882 430.115 214.868 428.426 214.192 426.398C211.489 420.316 209.123 413.896 207.096 407.475C205.744 402.745 204.393 398.014 203.379 393.283C202.703 389.904 202.027 386.525 201.69 382.808C200.676 375.374 200 367.94 200 360.168C200 355.775 200 351.382 200.676 346.99C201.014 344.286 201.352 341.583 201.69 338.88C203.717 322.998 208.11 308.13 214.53 294.276C217.571 287.517 221.288 280.759 225.343 274.677C232.101 264.202 239.873 254.402 248.997 245.617C277.719 217.57 317.255 200.337 360.507 200.337C362.196 200.337 363.886 200.337 365.576 200.337C367.265 200.337 369.292 200.337 370.982 200.675C380.106 201.351 389.229 202.702 398.015 204.73C403.083 206.081 408.152 207.433 412.883 209.123C416.262 210.136 419.303 211.488 422.682 212.84C425.048 213.853 427.413 214.867 429.778 215.881C430.116 216.219 430.454 216.219 431.13 216.557C446.674 223.991 460.866 234.128 473.031 246.293C474.72 247.982 476.41 249.672 478.099 251.699C479.113 253.051 480.465 254.064 481.478 255.416C483.506 257.444 485.195 259.809 486.885 261.836C493.305 269.946 498.712 278.732 503.442 287.855C508.849 298.669 513.242 310.157 516.283 321.984C518.31 333.811 520 346.652 520 360.168Z" fill="url(#paint0_radial_13_249)"/>
</g>
<g filter="url(#filter1_f_13_249)">
<path fill-rule="evenodd" clip-rule="evenodd" d="M520 360.168C520 375.374 517.973 390.58 513.918 404.434C505.808 432.818 489.926 457.824 468.976 477.422C454.108 491.277 436.198 502.428 416.6 509.862C399.028 516.62 379.768 520.337 359.831 520.337C357.128 520.337 354.087 520.337 351.383 519.999C347.328 519.661 342.936 519.323 338.881 518.985C308.131 514.93 279.747 502.09 257.107 482.829C248.659 475.733 240.887 467.623 233.791 458.837C228.722 452.079 223.992 445.321 219.937 437.887C218.923 436.198 217.909 434.17 216.895 432.481C216.895 432.481 216.895 432.481 216.895 432.143C215.882 430.115 214.868 428.426 214.192 426.398C211.489 420.316 209.123 413.896 207.096 407.475C205.744 402.745 204.393 398.014 203.379 393.283C202.703 389.904 202.027 386.525 201.69 382.808C200.676 375.374 200 367.94 200 360.168C200 355.775 200 351.382 200.676 346.99C201.014 344.286 201.352 341.583 201.69 338.88C203.717 322.998 208.11 308.13 214.53 294.276C217.571 287.517 221.288 280.759 225.343 274.677C232.101 264.202 239.873 254.402 248.997 245.617C277.719 217.57 317.255 200.337 360.507 200.337C362.196 200.337 363.886 200.337 365.576 200.337C367.265 200.337 369.292 200.337 370.982 200.675C380.106 201.351 389.229 202.702 398.015 204.73C403.083 206.081 408.152 207.433 412.883 209.123C416.262 210.136 419.303 211.488 422.682 212.84C425.048 213.853 427.413 214.867 429.778 215.881C430.116 216.219 430.454 216.219 431.13 216.557C446.674 223.991 460.866 234.128 473.031 246.293C474.72 247.982 476.41 249.672 478.099 251.699C479.113 253.051 480.465 254.064 481.478 255.416C483.506 257.444 485.195 259.809 486.885 261.836C493.305 269.946 498.712 278.732 503.442 287.855C508.849 298.669 513.242 310.157 516.283 321.984C518.31 333.811 520 346.652 520 360.168Z" fill="url(#paint1_radial_13_249)"/>
</g>
<path fill-rule="evenodd" clip-rule="evenodd" d="M520 360.168C520 375.374 517.973 390.58 513.918 404.434C505.808 432.818 489.926 457.824 468.976 477.422C454.108 491.277 436.198 502.428 416.6 509.862C399.028 516.62 379.768 520.337 359.831 520.337C357.128 520.337 354.087 520.337 351.383 519.999C347.328 519.661 342.936 519.323 338.881 518.985C308.131 514.93 279.747 502.09 257.107 482.829C248.659 475.733 240.887 467.623 233.791 458.837C228.722 452.079 223.992 445.321 219.937 437.887C218.923 436.198 217.909 434.17 216.895 432.481C216.895 432.481 216.895 432.481 216.895 432.143C215.882 430.115 214.868 428.426 214.192 426.398C211.489 420.316 209.123 413.896 207.096 407.475C205.744 402.745 204.393 398.014 203.379 393.283C202.703 389.904 202.027 386.525 201.69 382.808C200.676 375.374 200 367.94 200 360.168C200 355.775 200 351.382 200.676 346.99C201.014 344.286 201.352 341.583 201.69 338.88C203.717 322.998 208.11 308.13 214.53 294.276C217.571 287.517 221.288 280.759 225.343 274.677C232.101 264.202 239.873 254.402 248.997 245.617C277.719 217.57 317.255 200.337 360.507 200.337C362.196 200.337 363.886 200.337 365.576 200.337C367.265 200.337 369.292 200.337 370.982 200.675C380.106 201.351 389.229 202.702 398.015 204.73C403.083 206.081 408.152 207.433 412.883 209.123C416.262 210.136 419.303 211.488 422.682 212.84C425.048 213.853 427.413 214.867 429.778 215.881C430.116 216.219 430.454 216.219 431.13 216.557C446.674 223.991 460.866 234.128 473.031 246.293C474.72 247.982 476.41 249.672 478.099 251.699C479.113 253.051 480.465 254.064 481.478 255.416C483.506 257.444 485.195 259.809 486.885 261.836C493.305 269.946 498.712 278.732 503.442 287.855C508.849 298.669 513.242 310.157 516.283 321.984C518.31 333.811 520 346.652 520 360.168Z" fill="url(#paint2_radial_13_249)"/>
<path opacity="0.3" fill-rule="evenodd" clip-rule="evenodd" d="M430.116 216.22C429.44 216.22 429.102 216.22 428.427 216.557C426.737 216.895 425.047 216.557 423.358 216.22C422.006 215.882 421.331 215.206 419.641 215.206C417.614 214.868 415.924 214.192 413.897 213.854C411.869 213.516 410.179 212.84 408.152 212.165C406.462 211.489 405.787 211.827 404.435 212.165C403.083 212.503 402.07 211.827 400.718 211.489C399.366 210.813 397.677 210.813 396.325 210.475C392.27 209.799 388.215 208.448 384.161 207.434C381.795 206.758 379.43 206.758 376.727 206.758C374.699 206.758 373.009 207.434 370.982 207.434C369.63 207.434 368.617 207.096 367.265 207.096C365.913 206.758 364.562 207.096 363.21 207.096C361.183 206.758 360.169 206.42 358.141 207.096C356.452 207.434 355.438 207.434 353.749 207.772C352.059 207.772 350.032 208.448 348.342 208.786C345.301 209.461 341.922 210.137 338.881 210.137C336.853 210.137 334.15 209.461 332.46 210.137C331.447 210.475 330.771 211.827 329.757 212.503C328.068 214.192 326.378 215.544 325.026 217.233C323.675 218.923 322.323 220.95 322.323 223.316C322.323 225.343 323.337 227.708 324.351 229.398C325.364 231.425 325.702 233.115 323.675 234.467C321.309 236.156 318.268 237.508 315.565 238.522C313.537 239.197 311.848 239.535 310.496 238.184C309.82 237.846 309.483 236.832 308.807 236.156C308.131 235.818 307.117 236.156 306.441 236.494C304.414 237.17 302.386 237.846 300.359 238.184C299.007 238.522 297.994 239.197 296.642 239.197C295.29 239.535 294.277 238.522 292.587 238.859C290.56 239.197 288.194 240.211 286.167 240.211C284.477 240.211 282.45 239.535 281.098 238.859C280.422 238.522 280.084 237.846 279.071 238.184C278.395 238.184 277.381 239.197 277.043 239.873C276.367 240.549 276.367 241.563 275.692 242.239C275.016 243.252 274.678 243.928 274.002 244.942C272.988 246.631 271.975 248.321 270.961 250.01C270.285 251.024 269.609 252.714 268.596 253.727C268.258 254.403 267.244 254.741 266.568 255.079C264.879 256.093 263.189 257.444 261.499 258.458C258.458 260.824 255.417 263.527 252.376 265.892C250.011 267.582 246.631 268.595 243.928 269.947C242.239 270.623 240.549 271.299 238.86 271.975C238.184 272.312 237.17 272.312 236.832 272.988C236.156 273.664 235.818 274.34 235.48 275.354C234.129 277.043 232.439 279.071 231.426 281.098C230.75 282.45 230.412 283.463 229.736 284.815C229.06 286.505 228.046 288.194 227.708 290.222C226.357 293.939 226.357 297.994 224.667 301.711C223.992 303.738 222.64 305.765 221.626 307.793C219.937 311.172 219.599 315.227 219.261 318.944C218.923 320.971 219.261 323.675 219.599 325.702C219.937 328.068 219.937 330.433 219.937 332.798C219.937 335.164 218.247 337.867 216.895 339.556C215.544 341.246 213.178 341.922 211.489 343.611C210.137 344.963 208.448 346.315 207.772 348.342C207.434 349.018 207.772 350.032 207.772 351.045C207.434 353.073 206.758 354.762 206.758 356.79C206.42 359.155 206.42 361.521 206.42 364.224C206.42 365.575 206.42 366.589 206.42 367.941C206.42 369.292 206.758 370.306 207.096 371.32C207.096 371.996 207.096 373.009 207.096 373.685C207.096 374.699 207.772 375.713 207.772 376.389C208.448 378.754 208.786 380.781 209.123 383.147C209.461 385.174 210.475 387.202 210.813 389.229C211.827 391.932 212.165 394.636 212.841 397.677C213.178 399.704 213.178 402.07 213.516 404.097C213.854 405.787 214.192 407.476 214.192 409.166C214.192 411.869 213.516 414.234 213.516 416.938C213.516 421.33 215.206 425.723 216.22 430.116C216.558 431.468 216.895 432.481 217.233 433.833C206.082 412.207 200 387.54 200 361.521C200 329.757 209.124 300.359 225.005 275.692C231.763 265.216 239.535 255.417 248.659 246.969C277.381 218.923 316.917 201.689 360.169 201.689C363.548 201.689 367.265 201.689 370.644 202.027C391.595 201.689 411.869 207.096 430.116 216.22Z" fill="url(#paint3_linear_13_249)"/>
<path opacity="0.1" fill-rule="evenodd" clip-rule="evenodd" d="M369.969 435.185C369.969 435.185 384.837 457.149 404.774 475.059C424.711 492.968 427.414 505.133 427.414 505.133C427.414 505.133 464.922 489.589 491.617 452.419C518.312 415.587 369.969 435.185 369.969 435.185Z" fill="black" fill-opacity="0.5"/>
<path opacity="0.4" fill-rule="evenodd" clip-rule="evenodd" d="M397.002 204.393C388.216 202.365 379.431 201.014 369.969 200.338C368.28 200.338 366.252 200 364.562 200C368.279 202.027 371.996 205.744 372.672 209.799C374.024 216.558 376.389 222.64 377.403 229.06C378.755 235.48 378.417 243.59 375.376 249.335C373.686 253.052 371.321 256.093 368.28 259.134C366.252 261.162 364.225 262.513 362.873 265.216C361.521 267.92 359.832 270.285 358.142 272.65C355.777 276.368 353.074 280.084 350.032 283.464C349.019 284.815 348.005 285.491 346.991 286.843C345.978 288.532 345.302 290.222 343.95 291.573C340.909 294.615 336.516 296.642 332.799 297.994C327.73 300.021 323.338 302.049 318.607 304.752C311.849 308.469 306.104 312.862 298.332 313.2C295.629 313.2 292.926 312.862 290.222 313.2C286.843 313.538 283.802 314.889 280.761 315.565C278.058 316.241 275.017 316.579 272.313 317.255C267.583 317.93 263.866 319.62 259.473 320.634C253.728 321.985 247.646 321.647 241.564 322.661C236.157 323.337 231.764 324.013 226.358 322.661C218.248 320.634 213.855 316.917 215.544 308.131C216.558 302.387 216.22 297.994 213.517 293.939C207.097 307.793 202.704 322.999 200.677 338.543C204.394 340.232 208.786 340.908 212.503 341.246C224.33 342.598 237.171 337.191 247.984 333.136C253.39 331.109 259.135 328.068 265.217 327.392C271.637 326.716 277.044 327.392 283.464 326.04C305.09 320.634 326.379 313.2 345.977 301.711C354.087 296.98 357.466 290.222 363.211 283.464C367.942 277.381 373.686 272.65 379.43 267.582C385.175 262.513 390.244 257.782 393.623 251.024C397.34 243.928 400.381 235.818 402.07 228.046C403.76 219.261 401.395 211.151 397.002 204.393ZM395.988 226.019C395.65 227.709 395.312 229.736 394.974 231.426C393.623 235.818 390.919 240.211 386.865 242.239C385.175 243.252 382.472 242.577 381.458 240.887C380.782 239.873 380.782 238.522 380.782 237.508C380.444 235.143 380.106 233.115 380.106 230.75C380.106 225.343 380.106 219.937 379.43 214.53C380.106 217.571 379.431 209.799 384.161 207.772C386.527 206.758 389.906 207.772 391.595 209.461C393.623 211.827 394.299 215.544 394.974 218.247C395.65 221.288 396.326 223.316 395.988 226.019Z" fill="url(#paint4_linear_13_249)" fill-opacity="0.5"/>
<path opacity="0.4" fill-rule="evenodd" clip-rule="evenodd" d="M372.671 481.816C372.333 481.816 371.658 482.154 371.32 482.154L374.361 482.492C374.361 482.154 373.685 481.816 372.671 481.816ZM372.671 481.816C372.333 481.816 371.658 482.154 371.32 482.154L374.361 482.492C374.361 482.154 373.685 481.816 372.671 481.816ZM515.269 321.309C515.269 325.364 513.918 329.757 513.918 333.812C513.918 339.556 512.904 343.949 511.552 349.356C510.538 353.073 508.511 355.776 507.497 359.493C506.146 363.548 504.118 367.265 502.091 370.982C498.036 378.416 493.643 386.188 491.953 394.635C490.264 402.407 489.926 408.828 486.209 415.924C482.492 422.682 477.085 428.426 473.03 435.185C471.341 438.226 469.989 438.226 466.948 440.253C463.907 442.619 460.866 445.998 457.825 448.363C451.404 453.432 445.322 457.149 437.212 460.19C432.143 462.217 427.413 463.569 422.006 464.245C418.627 464.921 415.248 464.245 411.869 464.921C406.462 465.934 401.394 467.286 395.987 468.975C387.539 471.679 378.754 473.368 370.306 476.072C364.224 477.761 358.479 479.113 352.397 480.126C348.68 480.802 345.639 482.83 341.922 482.154C338.205 481.478 334.488 480.126 330.771 478.775C326.04 477.423 321.985 477.085 316.916 477.085C310.158 477.085 302.048 478.099 294.952 476.747C287.18 475.396 279.746 473.03 271.974 471.679C267.244 470.665 263.865 468.638 259.472 466.948C255.417 464.921 251.362 464.583 246.969 463.231C242.576 461.879 238.184 459.852 233.791 458.838C240.549 467.624 248.321 475.734 257.106 482.83C279.746 502.091 307.793 514.931 338.88 518.986C342.935 519.324 346.99 520 351.383 520C360.507 517.972 369.292 515.269 378.416 512.566C393.622 507.835 406.8 498.711 422.006 494.319C427.751 492.629 432.819 490.94 437.888 488.236C441.943 486.209 445.998 485.871 449.715 484.181C463.907 478.099 474.382 464.583 480.802 451.066C483.506 444.984 486.209 438.226 491.615 433.495C493.643 431.468 496.346 430.116 498.036 427.751C500.063 425.385 501.415 422.682 503.442 419.979C506.821 415.586 509.863 410.855 512.904 406.462C513.242 405.786 513.58 405.449 513.918 404.773C517.972 390.58 520 375.712 520 360.507C520 346.652 518.31 333.812 515.269 321.309ZM368.279 482.83C368.954 482.492 369.63 481.816 370.306 481.478C370.982 481.14 371.996 481.478 372.671 481.816C374.023 481.478 375.037 481.478 376.05 482.154C376.726 482.492 377.74 483.168 378.078 483.843C378.416 484.519 378.078 484.857 377.402 485.533C376.726 486.209 376.388 486.209 375.375 486.209C373.685 486.547 371.996 486.885 369.968 486.547C368.954 486.547 367.265 486.209 366.589 485.533C366.589 484.181 367.603 483.506 368.279 482.83ZM378.754 503.78C377.74 505.132 376.726 506.483 375.375 507.159C374.023 508.173 372.671 508.511 371.658 509.525C368.279 511.214 364.9 513.242 361.52 514.255C360.169 514.593 358.479 514.593 357.128 514.593C355.438 514.931 353.411 514.931 351.721 514.931C349.694 514.931 347.328 515.269 345.301 515.607C343.273 515.607 340.908 515.945 338.88 515.945C335.163 516.283 332.122 515.607 328.743 514.255C325.702 513.242 322.661 511.552 319.958 509.862C317.93 508.511 316.241 506.821 314.889 505.132C313.199 503.78 312.186 502.091 311.172 500.063C310.834 499.387 310.496 498.711 310.834 497.698C310.834 497.36 311.172 497.022 311.172 497.022C311.848 496.684 312.524 496.008 312.862 496.008C313.875 495.332 315.227 495.332 316.579 494.994C319.62 494.657 322.661 494.994 325.702 495.332C327.392 495.332 329.081 495.67 330.771 495.332C333.136 494.994 335.501 494.319 337.529 493.643C342.935 492.291 348.342 490.94 353.749 490.602C359.155 489.926 365.237 489.25 370.644 490.264C372.671 490.602 375.375 491.277 377.064 492.291C378.416 493.305 379.43 494.657 380.105 496.008C381.119 498.711 380.443 501.415 378.754 503.78ZM421.33 489.926C420.317 490.94 418.965 491.615 417.613 492.629C415.924 493.981 414.234 494.657 412.545 495.67C411.193 496.684 409.503 497.36 408.152 498.036C406.462 498.711 405.111 499.387 403.421 500.401C401.732 501.077 400.042 501.753 398.353 502.428C397.001 502.766 395.649 503.442 394.298 503.104C393.284 502.766 391.932 502.428 391.256 501.753C389.905 500.401 390.243 499.049 390.581 498.374C390.581 497.36 390.243 495.67 390.581 494.319C390.919 493.643 391.594 492.629 391.932 491.953C393.284 489.25 395.311 487.56 397.339 485.533C399.028 483.843 401.056 482.492 403.421 481.478C406.124 480.464 409.504 480.126 412.207 479.789C415.248 479.451 420.655 479.113 422.344 482.83C423.358 485.195 423.02 487.56 421.33 489.926ZM374.699 482.154C374.361 482.154 373.685 481.816 373.009 481.478C372.671 481.478 371.996 481.816 371.658 481.816L374.699 482.154Z" fill="url(#paint5_linear_13_249)" fill-opacity="0.5"/>
<path opacity="0.4" fill-rule="evenodd" clip-rule="evenodd" d="M502.43 287.181V287.857C502.092 292.249 500.403 295.291 498.713 299.345C497.361 302.725 496.01 305.428 494.32 308.469C491.617 313.538 490.265 318.268 488.238 324.013C484.859 332.461 483.507 341.584 478.438 349.356C474.046 356.452 472.694 364.9 469.315 372.334C465.26 380.782 458.84 386.526 452.081 392.608C449.04 395.312 446.337 398.691 443.634 401.732C440.593 404.773 438.565 408.828 434.848 411.531C427.414 416.938 418.966 421.669 411.532 427.413C407.14 430.792 404.098 435.523 399.03 438.226C394.299 441.267 388.893 443.295 384.162 445.998C379.769 448.701 375.376 451.405 370.645 453.432C365.239 455.46 360.846 454.784 355.102 455.122C349.019 455.46 342.599 457.149 336.855 459.177C332.124 460.866 328.069 462.556 323 460.866C319.621 459.852 316.918 457.487 313.539 456.811C305.429 455.122 296.643 456.811 288.533 456.473C282.113 456.135 275.355 454.784 268.935 453.432C262.852 452.418 257.784 448.026 252.039 446.336C244.605 444.309 236.158 445.998 229.399 443.295C226.358 442.281 223.655 439.916 221.29 438.226C220.614 437.888 220.276 437.55 219.6 437.212C218.586 435.523 217.573 433.495 216.559 431.806C218.248 432.482 219.938 433.158 221.627 434.171C230.751 438.564 242.24 437.888 252.039 439.578C263.19 441.605 274.341 444.309 285.492 445.66C290.223 446.336 294.616 445.998 299.347 445.66C305.767 444.984 312.187 444.984 318.607 443.971C329.42 441.943 340.234 436.875 351.385 438.226C353.412 438.564 355.777 439.578 357.805 439.578C360.846 439.578 363.211 436.875 365.577 435.185C369.97 432.482 374.7 432.82 378.755 429.103C382.472 425.386 386.865 423.02 391.596 420.655C403.76 414.573 413.56 404.435 423.359 394.636C431.469 386.526 439.241 378.078 444.648 368.279C450.054 358.48 449.04 346.653 453.095 336.515C456.136 329.081 458.502 322.323 463.233 315.903C465.598 312.862 468.301 310.159 470.667 307.117C473.37 304.076 474.721 300.697 476.749 296.98C478.776 292.925 481.818 289.546 483.507 285.153C485.197 281.098 484.859 277.719 484.859 273.326C484.859 268.934 484.859 264.203 484.859 259.472C491.955 269.272 497.699 278.057 502.43 287.181Z" fill="url(#paint6_linear_13_249)" fill-opacity="0.5"/>
<path opacity="0.4" fill-rule="evenodd" clip-rule="evenodd" d="M477.086 251.024C475.396 249.335 473.706 247.307 472.017 245.618C459.852 233.453 445.66 223.654 430.116 215.882C429.778 215.544 429.44 215.544 428.764 215.206C426.399 214.192 424.034 213.178 421.668 212.165C418.289 210.813 415.248 209.461 411.869 208.448C412.883 209.124 414.234 209.799 414.572 209.799C416.6 210.813 418.289 211.489 419.641 213.178C420.993 214.868 421.668 216.22 421.668 218.585C421.668 220.612 422.006 222.978 422.344 225.005C422.682 227.033 423.696 228.722 424.034 230.75C424.372 231.763 424.372 232.777 424.71 234.129C425.385 236.832 426.399 239.535 427.075 242.239C428.089 247.307 425.385 251.362 423.696 255.755C420.993 262.851 419.303 269.947 416.938 277.381C415.248 283.126 412.207 288.87 407.814 293.263C403.421 297.318 397.001 298.332 393.284 302.724C389.905 306.779 385.85 310.496 381.119 312.524C375.713 315.227 369.63 317.255 363.886 318.944C359.831 320.296 355.438 320.296 351.045 321.309C345.639 322.661 340.908 325.364 336.177 327.392C330.771 329.757 326.04 332.46 320.634 334.826C315.227 337.191 310.496 340.232 305.09 342.26C302.386 343.274 299.683 343.949 297.318 344.625C291.911 346.653 286.843 350.032 281.098 350.708C279.071 351.045 277.043 351.383 275.016 351.383C273.326 351.383 271.975 351.721 270.623 352.059C265.554 354.087 262.513 359.493 256.769 359.831C251.362 359.831 246.294 359.493 241.225 360.169C238.522 360.507 236.156 360.169 233.791 360.507C233.115 360.507 232.101 360.845 231.426 360.507C230.75 360.169 229.736 359.493 228.722 358.817C226.695 357.804 225.005 356.452 223.316 355.1C219.937 352.397 215.544 354.087 211.827 353.073C210.813 352.735 209.124 353.073 208.11 352.397C205.744 351.045 202.703 348.004 200.676 346.315C200.338 350.708 200 355.1 200 359.493C200 367.265 200.676 374.699 201.69 382.133C202.027 385.512 202.703 388.891 203.379 392.608C204.393 397.339 205.744 402.408 207.096 406.8C209.123 413.221 211.489 419.641 214.192 425.723C218.585 426.399 222.978 427.075 227.371 426.399C233.791 425.385 239.873 424.372 246.294 424.71C252.376 425.048 257.782 427.075 263.527 428.089C269.947 429.102 276.705 430.116 283.464 430.454C289.546 430.792 295.628 431.468 301.373 432.144C305.766 432.819 310.496 433.495 314.889 433.833C326.716 434.509 338.205 431.468 349.694 430.454C355.438 429.778 361.183 428.427 366.927 427.075C370.306 426.399 373.685 425.385 376.727 423.358C380.781 420.655 383.485 416.938 386.864 413.897C390.919 410.517 394.974 407.138 399.029 404.097C402.408 401.394 405.787 398.353 409.504 395.987C412.207 394.298 415.248 392.27 417.951 390.243C423.02 386.188 427.413 381.457 431.806 376.389C437.888 369.293 440.253 359.493 442.619 350.708C444.984 342.598 446.336 334.826 450.729 327.392C452.756 324.013 454.446 319.958 455.459 315.903C456.135 313.538 456.473 310.496 457.487 308.131C459.176 304.414 462.893 301.373 464.921 297.994C466.61 295.29 468.638 292.587 469.652 289.208C472.017 283.126 473.706 277.043 474.72 270.285C475.396 265.554 477.086 260.824 478.437 256.093C478.775 255.417 478.775 254.403 479.113 253.728C479.113 253.39 478.099 252.038 477.086 251.024ZM268.596 360.507C268.933 359.831 275.016 357.466 275.692 357.128C275.692 357.128 275.692 357.128 275.354 357.128L271.299 358.817C275.692 357.466 283.464 361.859 279.746 366.589C278.733 367.941 275.692 368.617 274.002 368.955C272.313 369.293 271.299 368.617 270.285 367.265C269.271 365.913 268.596 363.886 268.596 362.196C268.596 361.859 268.596 360.845 268.596 360.507ZM220.95 403.421C216.22 402.07 213.178 400.38 210.475 396.325C208.448 393.622 207.096 391.257 206.42 388.215C206.082 385.512 205.069 383.485 205.744 380.781C206.082 378.754 207.096 376.389 208.11 374.699C209.124 372.672 210.813 370.306 210.813 369.63C215.544 369.293 219.937 368.955 224.329 368.955C229.398 368.955 234.805 369.63 239.873 369.63C242.239 369.63 244.604 369.63 246.969 369.293C249.335 368.955 251.362 368.279 253.728 367.941C257.782 367.265 261.499 366.927 265.216 368.617C267.92 369.968 269.271 373.347 270.623 376.051C271.299 377.74 271.975 378.754 271.975 380.781C271.975 383.147 271.975 385.174 271.637 387.202C271.637 387.878 271.299 388.891 271.299 389.567C267.92 396.663 259.134 399.029 252.376 401.732C242.239 405.787 231.088 406.125 220.95 403.421ZM292.925 418.965C290.898 424.372 282.112 426.061 277.043 426.399C274.678 426.399 271.637 426.061 269.271 424.71C267.92 424.034 266.906 422.682 265.892 421.331C265.216 420.317 264.203 418.627 261.499 419.303C262.175 416.262 262.851 413.559 264.203 410.855C265.216 409.504 266.568 408.49 267.92 407.138C270.285 405.111 272.988 403.083 275.692 401.732C280.084 399.366 284.815 401.056 288.87 403.083C291.911 404.435 293.939 406.463 294.615 409.504C295.628 413.221 294.277 415.586 292.925 418.965ZM352.397 417.951C350.707 421.668 348.342 422.682 344.963 424.71C340.908 426.737 335.502 428.427 331.109 428.427C328.743 428.427 326.378 427.413 324.351 426.399C322.999 425.723 321.309 425.385 320.296 424.372C317.254 421.331 316.579 417.276 318.606 417.951C317.254 415.248 316.579 412.545 316.241 409.842C316.917 409.504 317.254 408.828 317.254 408.152C318.944 405.111 321.985 402.408 325.364 400.718C330.771 397.677 337.867 397.001 343.949 399.704C346.653 400.718 348.342 402.07 350.032 404.097C351.045 405.111 352.059 405.787 353.073 407.138C354.087 409.842 353.411 414.91 352.397 417.951ZM370.306 417.276C369.293 417.951 367.603 419.303 366.589 419.303C365.575 418.965 363.886 417.276 363.886 415.924L363.21 415.248C364.562 412.883 365.913 410.855 367.265 408.49C369.293 409.504 371.32 409.166 372.672 411.531C374.361 413.897 371.996 415.924 370.306 417.276ZM415.924 310.834C414.234 313.2 411.869 315.565 409.166 316.579C405.787 317.93 401.056 319.282 400.718 313.875C400.718 310.834 401.056 308.469 402.408 305.766C404.435 301.711 406.125 300.697 410.179 298.67C411.531 298.67 413.221 299.345 414.234 299.683C416.262 300.359 418.289 302.387 418.627 304.752C418.965 307.117 417.276 309.145 415.924 310.834ZM458.163 288.194C456.473 293.601 454.108 298.67 451.742 303.4C449.039 309.483 448.701 315.903 447.012 322.323C446.336 326.04 444.308 330.095 440.929 331.447C439.24 332.123 437.888 331.785 436.199 331.785C434.509 331.785 431.806 332.46 431.806 333.812C430.792 331.109 429.44 327.73 428.764 325.026C428.089 321.985 427.751 318.606 427.413 315.227C426.737 311.848 426.737 308.469 426.399 305.09C426.061 302.049 425.385 298.67 425.385 295.628C425.385 285.153 431.468 271.975 441.267 267.244C444.308 265.892 447.35 265.216 450.729 265.554C454.446 266.23 456.811 267.244 458.501 270.961C460.528 276.03 459.514 282.788 458.163 288.194Z" fill="url(#paint7_linear_13_249)" fill-opacity="0.5"/>
<path opacity="0.4" fill-rule="evenodd" clip-rule="evenodd" d="M411.531 297.994C411.193 298.332 410.517 298.332 410.179 298.67C409.166 298.67 408.49 298.332 407.814 298.67L411.531 297.994Z" fill="url(#paint8_linear_13_249)" fill-opacity="0.5"/>
<path opacity="0.4" fill-rule="evenodd" clip-rule="evenodd" d="M210.477 369.631C210.139 369.631 209.801 369.631 209.801 369.631C210.477 369.293 210.477 369.293 210.477 369.631Z" fill="url(#paint9_linear_13_249)" fill-opacity="0.5"/>
<path opacity="0.3" fill-rule="evenodd" clip-rule="evenodd" d="M268.597 491.954C268.597 491.954 283.127 497.36 293.602 494.319C293.602 494.319 297.657 460.19 284.816 438.226C271.976 416.262 250.012 449.377 250.012 449.377L244.943 470.327C244.943 470.327 257.108 484.857 268.597 491.954Z" fill="black" fill-opacity="0.5"/>
<path fill-rule="evenodd" clip-rule="evenodd" d="M233.116 499.388C233.454 499.726 233.792 500.064 233.792 500.74C233.116 500.74 233.116 500.402 233.116 499.726C233.116 499.05 233.454 499.388 233.792 498.712C233.792 498.712 233.792 498.712 234.13 498.712L233.116 499.388Z" fill="#0EDBFF"/>
<defs>
<filter id="filter0_f_13_249" x="100" y="100.337" width="520" height="520" filterUnits="userSpaceOnUse" color-interpolation-filters="sRGB">
<feFlood flood-opacity="0" result="BackgroundImageFix"/>
<feBlend mode="normal" in="SourceGraphic" in2="BackgroundImageFix" result="shape"/>
<feGaussianBlur stdDeviation="50" result="effect1_foregroundBlur_13_249"/>
</filter>
<filter id="filter1_f_13_249" x="0" y="0.336914" width="720" height="720" filterUnits="userSpaceOnUse" color-interpolation-filters="sRGB">
<feFlood flood-opacity="0" result="BackgroundImageFix"/>
<feBlend mode="normal" in="SourceGraphic" in2="BackgroundImageFix" result="shape"/>
<feGaussianBlur stdDeviation="100" result="effect1_foregroundBlur_13_249"/>
</filter>
<radialGradient id="paint0_radial_13_249" cx="0" cy="0" r="1" gradientUnits="userSpaceOnUse" gradientTransform="translate(260.646 285.172) scale(257.154)">
<stop offset="0.00558659" stop-color="#B1B8BE"/>
<stop offset="0.0937306" stop-color="#C0C8CB"/>
<stop offset="0.211" stop-color="#C0CAC9"/>
<stop offset="0.3446" stop-color="#B7C0C7"/>
<stop offset="0.4903" stop-color="#BCC6C7"/>
<stop offset="0.6442" stop-color="#959EA3"/>
<stop offset="0.6844" stop-color="#4C535D"/>
<stop offset="0.7432" stop-color="#636A74"/>
<stop offset="0.8282" stop-color="#3C4451"/>
<stop offset="0.9287" stop-color="#2E353F"/>
<stop offset="1" stop-color="#283039"/>
</radialGradient>
<radialGradient id="paint1_radial_13_249" cx="0" cy="0" r="1" gradientUnits="userSpaceOnUse" gradientTransform="translate(260.646 285.172) scale(257.154)">
<stop offset="0.00558659" stop-color="#B1B8BE"/>
<stop offset="0.0937306" stop-color="#C0C8CB"/>
<stop offset="0.211" stop-color="#C0CAC9"/>
<stop offset="0.3446" stop-color="#B7C0C7"/>
<stop offset="0.4903" stop-color="#BCC6C7"/>
<stop offset="0.6442" stop-color="#959EA3"/>
<stop offset="0.6844" stop-color="#4C535D"/>
<stop offset="0.7432" stop-color="#636A74"/>
<stop offset="0.8282" stop-color="#3C4451"/>
<stop offset="0.9287" stop-color="#2E353F"/>
<stop offset="1" stop-color="#283039"/>
</radialGradient>
<radialGradient id="paint2_radial_13_249" cx="0" cy="0" r="1" gradientUnits="userSpaceOnUse" gradientTransform="translate(260.646 285.172) scale(257.154)">
<stop offset="0.00558659" stop-color="#B1B8BE"/>
<stop offset="0.0937306" stop-color="#C0C8CB"/>
<stop offset="0.211" stop-color="#C0CAC9"/>
<stop offset="0.3446" stop-color="#B7C0C7"/>
<stop offset="0.4903" stop-color="#BCC6C7"/>
<stop offset="0.6442" stop-color="#959EA3"/>
<stop offset="0.6844" stop-color="#4C535D"/>
<stop offset="0.7432" stop-color="#636A74"/>
<stop offset="0.8282" stop-color="#3C4451"/>
<stop offset="0.9287" stop-color="#2E353F"/>
<stop offset="1" stop-color="#283039"/>
</radialGradient>
<linearGradient id="paint3_linear_13_249" x1="199.702" y1="316.132" x2="429.986" y2="316.132" gradientUnits="userSpaceOnUse">
<stop offset="0.0111732" stop-color="#001218"/>
<stop offset="0.3224"/>
<stop offset="0.5506"/>
<stop offset="0.7523"/>
<stop offset="0.9375"/>
<stop offset="1"/>
</linearGradient>
<linearGradient id="paint4_linear_13_249" x1="201.163" y1="270.819" x2="402.492" y2="270.819" gradientUnits="userSpaceOnUse">
<stop stop-color="#B8C2FF"/>
<stop offset="1" stop-color="#7D72B3"/>
</linearGradient>
<linearGradient id="paint5_linear_13_249" x1="233.838" y1="420.677" x2="519.878" y2="420.677" gradientUnits="userSpaceOnUse">
<stop stop-color="#B8C2FF"/>
<stop offset="1" stop-color="#7D72B3"/>
</linearGradient>
<linearGradient id="paint6_linear_13_249" x1="216.944" y1="361.513" x2="502.41" y2="361.513" gradientUnits="userSpaceOnUse">
<stop stop-color="#B8C2FF"/>
<stop offset="1" stop-color="#7D72B3"/>
</linearGradient>
<linearGradient id="paint7_linear_13_249" x1="199.709" y1="321.62" x2="480.309" y2="321.62" gradientUnits="userSpaceOnUse">
<stop stop-color="#B8C2FF"/>
<stop offset="1" stop-color="#7D72B3"/>
</linearGradient>
<linearGradient id="paint8_linear_13_249" x1="407.591" y1="298.491" x2="411.443" y2="298.491" gradientUnits="userSpaceOnUse">
<stop stop-color="#E8DDFF"/>
<stop offset="1" stop-color="#AA8AD8"/>
</linearGradient>
<linearGradient id="paint9_linear_13_249" x1="209.746" y1="369.667" x2="210.546" y2="369.667" gradientUnits="userSpaceOnUse">
<stop stop-color="#E8DDFF"/>
<stop offset="1" stop-color="#AA8AD8"/>
</linearGradient>
</defs>
</svg>
