<svg width="461" height="795" viewBox="0 0 461 795" fill="none" xmlns="http://www.w3.org/2000/svg">
<g filter="url(#filter0_f_13_244)">
<path fill-rule="evenodd" clip-rule="evenodd" d="M592.193 397.494C592.193 404.963 591.778 412.431 590.948 419.484C589.704 430.687 587.629 441.474 584.725 451.847C584.725 452.262 584.725 452.262 584.725 452.677C580.991 465.954 575.597 478.401 569.373 490.018C559.001 509.104 545.724 526.53 529.957 541.466C511.702 558.477 489.712 572.169 465.647 581.297C444.072 589.595 420.423 594.159 395.943 594.159C392.624 594.159 388.89 594.159 385.571 593.744C380.592 593.329 375.198 592.914 370.219 592.5C337.027 588.35 306.739 575.488 281.015 556.818C277.281 553.913 273.546 551.009 269.812 548.105C268.982 547.275 267.738 546.445 266.908 545.615C257.78 537.317 249.067 528.604 241.599 518.647C235.375 510.763 229.567 502.05 224.173 492.923C222.928 490.848 221.683 488.773 220.854 486.284C220.854 486.284 220.854 486.284 220.854 485.869C219.609 483.38 218.364 481.305 217.534 478.816C214.215 471.348 211.311 463.464 208.821 455.581C207.162 449.772 205.502 443.964 204.257 438.155C203.428 434.006 202.598 429.857 202.183 425.293C200.938 416.165 200.108 407.037 200.108 397.494C200.108 395.42 200.108 392.931 200.108 390.856C200.108 387.537 200.523 384.218 200.523 381.313C200.938 377.994 200.938 375.09 201.353 371.77C201.353 371.355 201.353 371.356 201.353 370.941C201.768 366.792 202.598 362.228 203.428 358.079C204.672 351.855 206.332 346.046 207.992 339.823C210.481 331.525 213.385 323.641 217.12 315.758C220.854 307.46 225.418 299.162 230.396 291.279C233.716 285.885 237.45 280.491 241.599 275.513C246.993 268.459 253.216 261.821 259.44 255.597C294.707 221.16 343.25 200 396.358 200C398.433 200 400.507 200 402.582 200C404.656 200 407.146 200 409.22 200.415C415.444 200.83 421.252 201.66 427.476 202.489C427.476 202.489 427.476 202.489 427.891 202.489C432.87 203.319 437.849 204.149 442.413 205.394C448.636 207.053 454.86 208.713 460.668 210.788C464.817 212.032 468.552 213.692 472.701 215.352C475.605 216.596 478.509 217.841 481.414 219.086C481.828 219.501 482.243 219.501 483.073 219.915C502.159 229.043 519.585 241.49 534.521 256.427C536.596 258.502 538.67 260.576 540.745 262.651C541.99 264.31 543.649 265.555 544.894 267.215C546.969 269.704 549.458 272.608 551.532 275.098C559.416 285.055 566.054 295.843 571.863 307.045C578.501 320.322 583.895 334.429 587.629 348.951C590.118 358.079 591.363 367.621 592.608 377.579C591.778 384.633 592.193 390.856 592.193 397.494Z" fill="url(#paint0_radial_13_244)"/>
</g>
<g filter="url(#filter1_f_13_244)">
<path fill-rule="evenodd" clip-rule="evenodd" d="M592.193 397.494C592.193 404.963 591.778 412.431 590.948 419.484C589.704 430.687 587.629 441.474 584.725 451.847C584.725 452.262 584.725 452.262 584.725 452.677C580.991 465.954 575.597 478.401 569.373 490.018C559.001 509.104 545.724 526.53 529.957 541.466C511.702 558.477 489.712 572.169 465.647 581.297C444.072 589.595 420.423 594.159 395.943 594.159C392.624 594.159 388.89 594.159 385.571 593.744C380.592 593.329 375.198 592.914 370.219 592.5C337.027 588.35 306.739 575.488 281.015 556.818C277.281 553.913 273.546 551.009 269.812 548.105C268.982 547.275 267.738 546.445 266.908 545.615C257.78 537.317 249.067 528.604 241.599 518.647C235.375 510.763 229.567 502.05 224.173 492.923C222.928 490.848 221.683 488.773 220.854 486.284C220.854 486.284 220.854 486.284 220.854 485.869C219.609 483.38 218.364 481.305 217.534 478.816C214.215 471.348 211.311 463.464 208.821 455.581C207.162 449.772 205.502 443.964 204.257 438.155C203.428 434.006 202.598 429.857 202.183 425.293C200.938 416.165 200.108 407.037 200.108 397.494C200.108 395.42 200.108 392.931 200.108 390.856C200.108 387.537 200.523 384.218 200.523 381.313C200.938 377.994 200.938 375.09 201.353 371.77C201.353 371.355 201.353 371.356 201.353 370.941C201.768 366.792 202.598 362.228 203.428 358.079C204.672 351.855 206.332 346.046 207.992 339.823C210.481 331.525 213.385 323.641 217.12 315.758C220.854 307.46 225.418 299.162 230.396 291.279C233.716 285.885 237.45 280.491 241.599 275.513C246.993 268.459 253.216 261.821 259.44 255.597C294.707 221.16 343.25 200 396.358 200C398.433 200 400.507 200 402.582 200C404.656 200 407.146 200 409.22 200.415C415.444 200.83 421.252 201.66 427.476 202.489C427.476 202.489 427.476 202.489 427.891 202.489C432.87 203.319 437.849 204.149 442.413 205.394C448.636 207.053 454.86 208.713 460.668 210.788C464.817 212.032 468.552 213.692 472.701 215.352C475.605 216.596 478.509 217.841 481.414 219.086C481.828 219.501 482.243 219.501 483.073 219.915C502.159 229.043 519.585 241.49 534.521 256.427C536.596 258.502 538.67 260.576 540.745 262.651C541.99 264.31 543.649 265.555 544.894 267.215C546.969 269.704 549.458 272.608 551.532 275.098C559.416 285.055 566.054 295.843 571.863 307.045C578.501 320.322 583.895 334.429 587.629 348.951C590.118 358.079 591.363 367.621 592.608 377.579C591.778 384.633 592.193 390.856 592.193 397.494Z" fill="url(#paint1_radial_13_244)"/>
</g>
<path fill-rule="evenodd" clip-rule="evenodd" d="M598 449.771L596.34 455.165C596.34 455.58 596.34 455.58 595.926 455.995C591.776 470.102 586.383 483.379 579.744 495.826C568.957 516.156 554.435 534.827 537.839 550.593C518.338 568.849 495.104 583.371 469.38 592.913C446.145 601.626 421.251 606.605 395.112 606.605C391.378 606.605 387.643 606.605 383.909 606.19C378.516 605.775 373.122 605.361 367.728 604.531C332.461 599.967 300.099 586.69 272.715 566.774C270.226 564.7 267.736 563.04 265.247 560.966C270.226 556.817 280.183 556.402 280.183 556.402L266.076 545.199L230.81 526.114C224.171 517.401 217.948 508.273 212.554 498.73C211.309 496.241 210.064 494.166 208.82 491.677C208.82 491.677 208.82 491.677 208.82 491.262C207.575 488.772 206.33 486.283 205.086 483.794C201.351 475.91 198.447 467.612 195.543 458.899C193.468 452.676 191.809 446.452 190.564 440.229C189.734 435.665 188.904 431.101 188.075 426.537C186.83 416.994 186 407.036 186 397.079C186 394.589 186 392.515 186 390.025C186 386.706 186.415 382.972 186.415 379.653C186.83 376.333 187.245 373.014 187.245 369.695C187.245 369.28 187.245 369.28 187.245 368.865C188.074 364.301 188.489 359.737 189.734 355.173C190.979 348.535 192.638 342.311 194.713 336.088C197.202 327.375 200.522 318.662 204.256 310.778C207.99 302.895 212.139 295.012 216.703 287.544C230.81 280.076 239.938 275.927 239.938 275.927C239.938 275.927 483.486 227.798 487.221 223.649C490.955 219.5 509.211 221.989 509.211 221.989C520.828 229.457 531.201 238.17 541.158 247.713C543.648 249.788 545.722 252.277 547.797 254.351C549.041 256.011 550.701 257.671 551.946 259.33C554.435 262.235 556.51 264.724 558.999 267.628C567.297 278.416 574.765 289.618 580.989 301.651C583.478 306.214 585.553 311.193 587.627 315.757C606.298 389.195 583.063 451.846 583.063 451.846C589.287 450.601 594.266 450.186 598 449.771Z" fill="url(#paint2_radial_13_244)"/>
<path fill-rule="evenodd" clip-rule="evenodd" d="M598 449.771L596.34 455.165C596.34 455.58 596.34 455.58 595.926 455.995C591.776 470.102 586.383 483.379 579.744 495.826C568.957 516.156 554.435 534.827 537.839 550.593C518.338 568.849 495.104 583.371 469.38 592.913C446.145 601.626 421.251 606.605 395.112 606.605C391.378 606.605 387.643 606.605 383.909 606.19C378.516 605.775 373.122 605.361 367.728 604.531C332.461 599.967 300.099 586.69 272.715 566.774C270.226 564.7 267.736 563.04 265.247 560.966C270.226 556.817 280.183 556.402 280.183 556.402L266.076 545.199L230.81 526.114C224.171 517.401 217.948 508.273 212.554 498.73C211.309 496.241 210.064 494.166 208.82 491.677C208.82 491.677 208.82 491.677 208.82 491.262C207.575 488.772 206.33 486.283 205.086 483.794C201.351 475.91 198.447 467.612 195.543 458.899C193.468 452.676 191.809 446.452 190.564 440.229C189.734 435.665 188.904 431.101 188.075 426.537C186.83 416.994 186 407.036 186 397.079C186 394.589 186 392.515 186 390.025C186 386.706 186.415 382.972 186.415 379.653C186.83 376.333 187.245 373.014 187.245 369.695C187.245 369.28 187.245 369.28 187.245 368.865C188.074 364.301 188.489 359.737 189.734 355.173C190.979 348.535 192.638 342.311 194.713 336.088C197.202 327.375 200.522 318.662 204.256 310.778C207.99 302.895 212.139 295.012 216.703 287.544C230.81 280.076 239.938 275.927 239.938 275.927C239.938 275.927 483.486 227.798 487.221 223.649C490.955 219.5 509.211 221.989 509.211 221.989C520.828 229.457 531.201 238.17 541.158 247.713C543.648 249.788 545.722 252.277 547.797 254.351C549.041 256.011 550.701 257.671 551.946 259.33C554.435 262.235 556.51 264.724 558.999 267.628C567.297 278.416 574.765 289.618 580.989 301.651C583.478 306.214 585.553 311.193 587.627 315.757C606.298 389.195 583.063 451.846 583.063 451.846C589.287 450.601 594.266 450.186 598 449.771Z" fill="url(#paint3_radial_13_244)"/>
<path fill-rule="evenodd" clip-rule="evenodd" d="M592.193 397.494C592.193 404.963 591.778 412.431 590.948 419.484C589.704 430.687 587.629 441.474 584.725 451.847C584.725 452.262 584.725 452.262 584.725 452.677C580.991 465.954 575.597 478.401 569.373 490.018C559.001 509.104 545.724 526.53 529.957 541.466C511.702 558.477 489.712 572.169 465.647 581.297C444.072 589.595 420.423 594.159 395.943 594.159C392.624 594.159 388.89 594.159 385.571 593.744C380.592 593.329 375.198 592.914 370.219 592.5C337.027 588.35 306.739 575.488 281.015 556.818C277.281 553.913 273.546 551.009 269.812 548.105C268.982 547.275 267.738 546.445 266.908 545.615C257.78 537.317 249.067 528.604 241.599 518.647C235.375 510.763 229.567 502.05 224.173 492.923C222.928 490.848 221.683 488.773 220.854 486.284C220.854 486.284 220.854 486.284 220.854 485.869C219.609 483.38 218.364 481.305 217.534 478.816C214.215 471.348 211.311 463.464 208.821 455.581C207.162 449.772 205.502 443.964 204.257 438.155C203.428 434.006 202.598 429.857 202.183 425.293C200.938 416.165 200.108 407.037 200.108 397.494C200.108 395.42 200.108 392.931 200.108 390.856C200.108 387.537 200.523 384.218 200.523 381.313C200.938 377.994 200.938 375.09 201.353 371.77C201.353 371.355 201.353 371.356 201.353 370.941C201.768 366.792 202.598 362.228 203.428 358.079C204.672 351.855 206.332 346.046 207.992 339.823C210.481 331.525 213.385 323.641 217.12 315.758C220.854 307.46 225.418 299.162 230.396 291.279C233.716 285.885 237.45 280.491 241.599 275.513C246.993 268.459 253.216 261.821 259.44 255.597C294.707 221.16 343.25 200 396.358 200C398.433 200 400.507 200 402.582 200C404.656 200 407.146 200 409.22 200.415C415.444 200.83 421.252 201.66 427.476 202.489C427.476 202.489 427.476 202.489 427.891 202.489C432.87 203.319 437.849 204.149 442.413 205.394C448.636 207.053 454.86 208.713 460.668 210.788C464.817 212.032 468.552 213.692 472.701 215.352C475.605 216.596 478.509 217.841 481.414 219.086C481.828 219.501 482.243 219.501 483.073 219.915C502.159 229.043 519.585 241.49 534.521 256.427C536.596 258.502 538.67 260.576 540.745 262.651C541.99 264.31 543.649 265.555 544.894 267.215C546.969 269.704 549.458 272.608 551.532 275.098C559.416 285.055 566.054 295.843 571.863 307.045C578.501 320.322 583.895 334.429 587.629 348.951C590.118 358.079 591.363 367.621 592.608 377.579C591.778 384.633 592.193 390.856 592.193 397.494Z" fill="url(#paint4_radial_13_244)"/>
<path fill-rule="evenodd" clip-rule="evenodd" d="M299.683 319.078C299.683 319.078 294.289 330.695 298.853 342.312C303.002 353.93 315.449 346.461 329.971 342.312C344.493 338.163 359.429 323.226 368.972 313.684C378.515 304.141 387.643 291.279 386.813 278.832C385.983 266.385 372.706 258.087 372.706 258.087C372.706 258.087 377.685 251.863 373.536 276.757C369.387 301.237 363.993 310.364 358.599 314.099C353.206 317.833 337.439 327.376 328.726 332.769C320.013 338.163 310.056 343.557 304.247 342.312C298.023 340.238 295.119 327.376 299.683 319.078Z" fill="url(#paint5_radial_13_244)"/>
<path fill-rule="evenodd" clip-rule="evenodd" d="M326.237 310.364C326.237 310.364 318.769 317.003 320.843 322.396C322.918 327.79 337.025 324.471 346.153 312.854C355.28 301.236 348.227 292.108 348.227 292.108C348.227 292.108 344.908 311.194 336.195 314.513C327.482 317.832 324.577 316.588 324.577 316.588C324.577 316.588 322.503 314.928 326.237 310.364Z" fill="url(#paint6_radial_13_244)"/>
<path fill-rule="evenodd" clip-rule="evenodd" d="M303.834 318.663C303.834 318.663 310.888 310.365 319.186 302.896C327.484 295.013 341.591 292.109 341.591 292.109C341.591 292.109 333.293 287.545 322.505 293.768C312.133 300.407 303.834 318.663 303.834 318.663Z" fill="url(#paint7_radial_13_244)"/>
<path fill-rule="evenodd" clip-rule="evenodd" d="M273.961 319.076C273.961 319.076 290.972 300.406 311.302 292.523C331.632 284.639 338.686 282.15 347.814 274.682C356.942 267.213 366.899 261.405 366.899 261.405C366.899 261.405 346.984 262.235 316.696 281.735C286.408 300.406 273.961 312.853 273.961 319.076Z" fill="url(#paint8_radial_13_244)"/>
<path fill-rule="evenodd" clip-rule="evenodd" d="M232.887 315.343C232.887 315.343 261.931 286.3 284.75 274.682C307.57 263.065 322.921 256.012 343.252 250.618C363.582 245.639 395.115 236.511 395.115 236.511L400.923 233.607C400.923 233.607 335.784 234.851 293.463 260.575C251.143 286.3 232.887 315.343 232.887 315.343Z" fill="url(#paint9_radial_13_244)"/>
<path fill-rule="evenodd" clip-rule="evenodd" d="M268.152 348.951C268.152 348.951 273.131 389.196 280.184 390.856C287.237 392.516 312.132 392.516 349.473 373.43C386.814 354.344 394.283 358.908 415.028 337.748C435.773 316.588 444.486 292.524 450.71 276.757C457.348 260.991 459.008 242.735 456.933 237.341C456.933 237.341 463.987 241.49 463.987 257.257C463.987 273.023 459.423 299.577 452.784 314.514C446.146 329.865 428.72 353.929 407.975 365.547C387.229 377.164 345.324 399.984 304.663 399.569C263.588 399.154 270.226 396.25 266.077 387.952C261.513 379.654 268.152 348.951 268.152 348.951Z" fill="url(#paint10_radial_13_244)"/>
<path opacity="0.5" fill-rule="evenodd" clip-rule="evenodd" d="M204.257 382.972C204.257 382.972 211.726 399.154 215.46 414.09C219.609 429.027 218.779 453.921 235.79 458.07C252.801 461.804 276.451 473.007 285.164 470.102C294.292 467.198 327.484 461.389 346.155 465.123C364.825 468.858 398.433 466.783 410.05 460.974C421.667 455.166 447.391 439.814 459.424 435.25C471.456 430.687 488.052 417.409 502.574 402.888C517.095 388.366 516.68 371.77 520.414 363.472C524.149 355.174 531.202 322.396 530.372 307.46C529.542 292.523 520.414 264.725 520.414 264.725L512.116 256.012C512.116 256.012 522.489 294.183 517.925 321.567C513.361 348.535 517.51 359.738 498.839 385.462C480.169 411.601 453.615 431.931 424.157 441.474C394.698 451.432 375.613 450.187 345.325 453.091C316.696 455.581 281.015 453.921 266.908 450.187C254.046 446.868 237.035 438.57 224.173 417.824C210.481 396.249 204.257 382.972 204.257 382.972Z" fill="#7D72B3"/>
<path opacity="0.4" fill-rule="evenodd" clip-rule="evenodd" d="M269.396 340.652C269.396 340.652 272.301 384.217 277.695 387.951C283.088 391.685 295.12 393.344 305.908 389.61C317.11 385.876 354.452 373.429 361.09 369.695C367.729 365.961 407.145 346.045 415.028 339.822C422.911 334.013 433.284 312.853 437.018 308.704C440.752 304.555 450.295 278.416 452.784 268.458C455.688 258.5 457.348 246.883 457.348 246.883C457.348 246.883 458.178 241.489 453.614 239.415C449.05 237.755 448.22 239.415 448.22 239.415C448.22 239.415 447.39 246.053 443.241 264.724C439.092 283.395 383.495 347.29 355.282 364.301C327.068 380.897 300.514 381.727 290.971 380.482C281.014 379.238 268.982 348.12 269.396 340.652Z" fill="#7D72B3"/>
<path opacity="0.4" fill-rule="evenodd" clip-rule="evenodd" d="M268.153 348.95C268.153 348.95 269.398 321.982 276.451 312.854C283.504 303.726 307.154 285.055 320.846 278.002C334.952 270.948 354.868 260.991 361.921 259.331C368.975 257.671 373.953 259.331 373.953 259.331C373.953 259.331 365.655 254.767 346.155 259.746C326.654 264.725 304.664 282.566 293.877 288.374C283.089 293.768 266.908 307.46 262.759 314.513C259.025 320.737 268.153 348.95 268.153 348.95Z" fill="#7D72B3"/>
<path opacity="0.4" fill-rule="evenodd" clip-rule="evenodd" d="M220.023 320.322L280.184 267.629L317.525 250.618C317.525 250.618 354.452 238.171 371.463 234.022C388.474 229.873 426.23 229.043 426.23 229.043L446.146 231.117C446.146 231.117 411.709 212.447 360.261 226.138C309.227 239.83 275.205 257.256 260.269 271.363C245.747 285.055 222.927 313.268 220.023 320.322Z" fill="#7D72B3"/>
<path fill-rule="evenodd" clip-rule="evenodd" d="M218.364 322.396C218.364 322.396 186.001 361.397 201.768 385.461C217.534 409.526 224.588 444.378 229.152 452.261C233.715 460.144 285.993 472.591 296.781 470.102C307.568 467.612 333.707 460.974 350.718 467.197C350.718 467.197 381.007 464.708 389.305 464.708C398.018 464.708 413.784 457.24 417.518 455.58C421.252 453.92 441.583 447.282 451.955 443.133C462.328 438.984 479.339 425.707 485.977 420.728C492.616 415.334 510.457 394.174 514.191 387.536C517.51 380.897 527.883 342.726 530.372 324.47C532.862 306.214 525.393 271.362 519.17 259.33C512.946 247.298 494.69 236.096 494.69 236.096L495.935 230.702L510.457 221.989C510.457 221.989 535.766 254.766 537.84 283.395C539.085 299.991 543.234 335.673 538.67 351.024C535.351 363.471 523.319 399.153 512.531 412.015C502.159 424.877 470.626 457.654 454.03 464.293C437.434 470.517 387.645 479.229 358.602 479.644C337.027 480.059 289.728 476.325 266.493 475.495C243.258 474.665 226.662 460.144 217.534 452.676C208.406 445.207 211.311 425.292 202.183 409.111C192.64 393.344 187.661 372.184 189.736 360.567C191.81 349.779 218.364 322.396 218.364 322.396Z" fill="url(#paint11_radial_13_244)"/>
<path fill-rule="evenodd" clip-rule="evenodd" d="M275.206 471.347C270.227 470.102 265.663 467.613 260.684 466.368C257.78 465.538 255.29 465.123 252.386 464.294C249.481 463.464 246.577 463.049 243.673 463.049C237.864 462.634 232.055 461.389 228.321 456.825C225.002 452.676 222.928 448.112 221.683 442.718C219.608 435.665 217.949 428.612 215.874 421.973C213.8 415.335 211.31 409.941 207.576 404.132C206.331 402.058 205.087 399.568 203.427 397.494C202.182 395.419 200.108 393.76 198.863 391.27C195.959 385.462 195.129 379.238 195.129 372.6C195.129 369.28 195.959 365.961 196.789 362.642C197.618 358.493 198.863 354.759 200.938 351.025C203.012 347.705 204.672 343.971 206.746 340.652C211.31 332.769 215.874 324.886 221.268 317.832C228.321 309.119 236.205 300.406 244.503 292.523C249.067 287.959 254.46 283.81 259.854 279.661C264.418 276.342 268.567 272.608 272.716 269.288C280.184 263.48 288.897 259.746 297.61 255.597C307.983 250.618 318.356 245.639 329.143 241.905C342.005 237.341 354.867 233.607 368.144 230.702C383.496 227.798 399.262 226.968 414.613 226.968C422.911 226.968 432.039 226.138 440.337 229.043C444.901 230.702 450.295 232.777 454.029 235.266C454.859 236.096 455.274 236.096 456.104 236.926C456.519 237.341 456.519 238.171 456.934 238.586C457.763 240.245 458.178 242.32 458.178 243.979C458.178 245.639 457.349 247.299 457.349 248.958C457.349 251.448 456.519 253.937 456.519 256.426C456.519 259.331 455.689 261.405 455.274 264.31C454.444 269.288 453.614 274.267 451.54 279.246C448.636 286.3 446.561 293.768 443.657 300.406C442.827 302.481 441.167 304.14 439.922 306.215C439.093 308.289 438.263 309.534 437.018 311.609C434.944 314.928 433.284 318.662 430.795 321.566C425.816 328.205 421.252 335.258 414.613 340.652C406.73 346.876 398.432 352.269 389.719 356.833C383.91 359.738 378.102 362.227 372.293 365.131C367.314 367.621 361.921 370.525 356.527 373.015C343.25 379.238 328.728 383.802 314.621 388.366C310.472 389.611 306.738 390.855 302.589 391.685C298.855 392.1 294.291 393.345 290.557 393.345C286.408 393.345 282.259 392.1 278.11 390.855C271.471 388.781 270.642 381.313 270.227 375.089C269.812 370.525 269.397 365.961 268.567 361.812C267.737 358.078 267.737 354.759 266.907 351.025C266.078 347.29 265.663 343.556 265.663 339.822C265.663 334.843 267.322 330.694 268.567 325.716C269.397 322.811 269.397 319.492 271.056 316.588C272.716 312.439 276.035 308.704 279.769 305.8C283.089 302.896 286.823 299.577 290.142 296.672C292.217 294.598 294.706 293.353 296.78 291.693C300.515 288.789 304.664 286.3 309.228 284.225C312.547 282.565 315.036 279.661 318.356 277.587C321.675 275.512 325.409 273.438 328.728 271.363C331.632 269.703 334.952 268.874 338.271 267.629C340.76 266.799 343.25 265.139 345.739 264.31C348.229 263.48 350.718 263.065 353.207 262.235C355.697 261.405 357.771 260.575 360.261 259.746C363.165 258.916 366.07 258.086 368.559 258.086C373.953 258.086 376.442 260.575 378.102 265.969C380.176 273.023 377.687 279.246 375.197 285.885C373.123 291.278 370.634 296.257 368.974 301.651C366.485 308.704 359.846 312.439 354.452 317.417C348.644 322.396 341.59 327.375 334.952 330.279C332.877 331.109 330.388 331.939 328.313 332.769C326.654 333.599 324.579 334.843 322.92 335.673C321.675 336.503 320.845 337.333 319.6 338.163C318.77 338.992 317.526 338.992 316.281 339.822C313.792 341.482 311.302 343.141 308.398 344.386C305.908 345.631 300.515 346.461 298.855 343.141C298.025 341.482 298.025 339.407 297.61 337.748C297.195 335.673 297.195 333.599 297.195 331.524C297.195 329.45 297.61 327.79 298.025 325.716C298.44 323.641 299.27 321.981 300.1 319.907C302.174 314.098 305.908 309.949 309.228 305.385C311.302 302.481 313.377 299.577 315.866 296.672C319.6 292.523 324.994 290.863 329.973 289.204C334.537 287.959 341.59 286.714 346.154 289.204C349.888 291.693 347.399 296.672 346.154 299.576C345.324 301.236 344.909 302.896 344.08 304.555C343.665 305.8 343.665 307.46 342.835 308.704C341.175 311.194 338.271 312.853 335.782 314.928C334.952 315.758 333.292 317.003 332.047 317.417C330.388 317.832 328.728 317.832 327.069 318.247C326.239 318.247 325.824 319.492 324.994 319.077C324.164 318.662 324.164 317.832 324.164 317.002C324.164 316.173 324.579 315.343 324.994 314.513C324.994 314.513 324.994 314.098 324.994 313.683C325.824 311.194 328.728 308.289 329.973 306.215C332.047 307.045 330.803 308.289 330.388 309.534C329.973 310.364 329.973 311.194 329.973 312.024C329.973 312.853 328.728 314.098 329.558 314.928C329.973 315.343 332.047 314.513 332.462 314.513C337.441 312.853 340.346 307.46 342.005 302.896C342.835 299.577 342.835 294.598 339.516 292.938C337.026 292.108 333.707 292.523 331.218 292.523C321.675 292.523 315.866 302.896 310.472 309.534C307.153 314.098 304.249 319.077 302.174 324.471C300.93 328.205 300.1 331.939 299.27 335.673C298.44 338.578 297.61 342.727 301.759 342.312C304.249 341.897 306.738 340.652 309.228 339.822C311.302 338.992 312.962 338.577 315.036 337.333C317.941 335.673 321.675 335.258 324.579 333.599C327.069 332.354 329.558 331.109 332.047 329.865C338.271 326.545 344.909 320.322 349.058 314.928C351.963 311.194 356.527 308.29 359.846 304.97C363.58 301.651 365.24 297.087 367.729 292.938C370.219 288.374 371.463 284.225 372.708 279.661C373.538 275.512 376.442 270.533 374.783 265.969C373.538 261.405 367.314 261.405 363.58 261.82C360.261 262.235 356.942 263.065 353.622 263.895C347.814 265.969 342.42 268.459 337.026 270.948C328.313 274.682 320.845 280.491 312.962 285.47C308.813 287.959 304.249 290.034 300.515 292.938C297.61 295.012 295.121 297.917 292.217 299.991C290.142 301.651 288.897 303.726 286.408 304.97C283.504 307.045 281.014 309.119 278.94 311.609C277.28 313.683 275.205 316.588 274.376 319.077C273.546 321.152 274.376 323.226 274.376 325.301C274.376 328.205 273.546 331.109 273.546 334.014C273.546 336.918 273.546 340.237 273.546 343.141C273.546 349.365 272.716 355.174 272.716 360.982C272.716 364.717 273.546 368.865 274.376 372.185C274.791 375.089 276.035 377.578 276.45 380.483C276.45 382.557 276.865 385.047 278.525 386.291C279.355 386.706 280.599 387.121 281.429 387.536C282.259 387.951 283.089 388.366 283.919 388.366C284.333 388.366 284.748 388.781 285.578 388.781C285.993 388.781 286.408 389.611 286.408 389.611C287.238 390.026 288.897 389.611 289.727 389.611C292.217 389.196 294.706 388.781 296.78 387.951C303.004 387.121 308.813 387.121 314.621 385.047C321.26 382.557 327.483 378.823 333.707 376.334C343.25 372.185 354.037 369.28 363.165 364.302C367.314 362.227 371.878 359.738 376.027 358.078C386.4 353.514 397.187 349.78 405.9 342.726C409.22 340.237 412.124 336.918 415.028 334.014C416.688 332.354 418.348 330.694 420.007 328.62C424.571 322.811 428.72 316.588 432.039 310.364C433.699 307.875 434.529 304.555 435.773 302.066C438.263 297.917 440.752 294.183 443.242 290.034C445.316 285.885 446.561 281.736 447.806 277.172C448.636 274.267 449.465 272.193 449.05 269.288C449.05 263.48 449.465 258.501 451.955 253.107C453.2 250.203 455.274 246.054 454.029 242.735C453.614 241.075 451.125 240.66 449.88 240.245C446.561 239 443.242 238.171 439.922 236.926C437.018 235.681 434.944 234.022 431.624 233.607C430.38 233.192 429.135 233.192 427.89 233.192C424.571 233.192 422.082 235.681 418.762 235.266C417.933 235.266 417.103 234.851 415.858 234.851C414.198 234.436 412.539 234.851 410.879 234.851C407.145 234.851 403.826 234.022 400.092 234.022C395.943 234.022 391.794 234.436 387.645 234.851C383.496 235.266 379.761 234.851 375.612 234.851C373.123 234.851 371.463 236.096 369.389 236.926C367.314 237.756 365.24 238.171 363.165 239C361.091 239.83 359.431 240.245 357.357 240.66C354.452 240.66 351.963 240.245 349.058 241.075C345.739 241.905 342.42 243.15 339.101 244.394C330.388 248.128 321.675 253.107 312.547 256.012C307.983 257.256 303.419 258.086 299.27 259.746C297.61 260.575 296.366 261.405 294.706 262.65C291.802 264.725 288.897 266.384 285.993 268.044C279.355 272.193 273.131 276.757 266.493 281.736C259.024 287.129 251.971 292.938 245.747 299.991C234.96 312.439 223.757 324.886 214.215 338.577C209.651 344.801 204.672 351.854 201.767 358.908V359.323C200.108 363.472 199.278 367.621 199.693 372.185C199.693 372.185 199.693 372.185 199.693 372.6C200.108 376.334 201.767 380.483 203.012 383.802C204.672 387.121 205.502 390.441 207.576 393.76C209.651 397.079 212.555 399.983 213.8 403.717C215.459 408.281 217.119 413.26 218.779 418.239C220.438 424.048 222.098 430.271 222.928 436.495C223.757 440.229 224.172 444.378 226.247 447.697C228.736 452.676 234.13 454.336 238.694 457.24C241.183 458.9 242.428 459.315 245.332 459.315C249.066 459.73 253.216 460.559 256.95 461.804C264.833 464.294 273.131 465.953 281.429 465.953C286.408 465.953 291.387 464.708 295.951 463.879C300.515 463.464 305.079 463.049 309.643 462.219C313.792 461.389 317.941 460.559 322.09 460.559C326.239 460.559 330.803 461.389 334.537 462.219C341.59 464.294 348.229 465.538 355.282 465.538C359.846 465.538 363.995 464.294 368.559 464.294C372.708 463.879 376.442 464.708 380.591 465.123C387.645 465.538 394.698 463.879 401.336 461.389C405.9 459.73 409.635 457.655 413.784 455.166C417.103 453.091 420.422 452.676 423.741 451.846C430.795 449.772 437.848 447.282 444.486 443.548C452.785 438.569 459.838 431.516 468.136 426.537C472.7 423.633 478.094 421.558 482.658 418.654C486.392 416.165 490.126 413.26 493.03 409.941C496.764 406.207 500.084 402.473 503.818 398.739C506.722 395.834 507.967 392.1 509.212 388.781C511.701 383.387 512.531 377.993 513.361 372.185C514.19 366.376 516.68 361.397 519.169 356.418C522.488 349.78 524.978 343.556 525.393 336.088C525.808 330.279 526.638 324.886 526.638 319.077C526.638 315.343 526.223 312.024 525.393 308.289C524.978 304.97 524.148 301.651 523.733 298.332C522.903 294.183 522.903 290.034 522.074 285.885C521.244 282.565 520.414 278.831 519.584 275.097C518.754 272.608 517.925 270.118 517.095 267.629C515.435 263.48 512.946 259.331 510.041 255.597C508.797 253.937 507.137 253.522 505.892 252.692C504.648 251.863 504.648 251.033 503.403 250.618C501.743 249.788 500.084 248.958 498.424 248.128C495.52 246.469 492.615 246.054 489.711 244.394C487.222 243.15 484.732 241.075 482.243 239.415C479.338 237.756 476.434 236.511 473.945 234.022C471.455 231.532 469.796 228.628 467.721 226.553C465.232 224.064 461.912 222.404 459.423 220.33C454.859 216.596 449.05 216.181 444.072 214.106C441.582 212.861 438.678 212.861 436.188 212.032C432.869 211.202 430.795 209.542 427.475 209.127C424.571 208.712 421.667 208.712 418.348 207.883C416.688 207.468 415.028 207.053 412.954 207.053C409.634 206.638 405.9 207.053 402.581 207.468C399.677 207.883 396.358 207.468 393.453 207.468C390.964 207.468 388.06 207.883 385.57 207.468C378.102 206.223 370.219 206.638 362.75 207.053C355.697 207.468 348.644 207.883 342.005 210.372C336.196 212.447 330.803 214.106 324.994 216.181C321.26 217.84 317.941 219.915 314.207 221.989C305.494 226.968 297.61 232.777 289.727 238.171C280.599 244.394 271.886 251.033 263.173 257.671C257.365 261.82 251.556 266.384 246.162 270.533C243.673 272.608 241.183 274.682 239.109 276.757C244.503 269.703 250.726 263.065 256.95 256.841C292.217 222.404 340.76 201.244 393.868 201.244C395.943 201.244 398.017 201.244 400.092 201.244C402.166 201.244 404.656 201.244 406.73 201.659C412.954 202.074 418.762 202.904 424.986 203.734C424.986 203.734 424.986 203.734 425.401 203.734C432.039 205.393 438.678 207.468 445.731 209.542C451.54 211.202 456.934 212.861 462.327 214.521C466.062 215.766 469.381 217.425 473.115 218.67C476.434 219.915 479.753 221.16 482.658 222.819C487.637 225.723 492.2 229.043 496.349 232.362C499.254 234.437 502.158 237.341 504.648 239.83C508.382 243.564 511.701 247.713 514.605 251.862C521.244 262.235 526.637 273.852 529.127 286.3C531.201 296.672 531.202 307.46 530.787 317.832C530.372 323.226 529.542 329.45 528.297 334.843C527.052 341.067 524.978 346.461 524.148 352.684C523.733 355.589 524.148 358.908 523.733 361.812C523.318 364.302 522.489 366.791 522.074 369.28C521.244 374.259 519.584 379.653 517.095 384.217C513.775 390.855 509.626 396.249 504.648 401.643C499.254 407.867 493.86 414.09 488.051 419.899C482.658 426.122 476.019 431.101 468.966 435.25C463.572 438.569 457.763 442.718 451.955 444.793C446.146 446.868 439.922 450.187 433.699 451.017C429.135 451.431 425.401 453.091 421.667 455.995C419.592 457.655 417.518 459.73 415.443 461.804C413.369 463.464 411.294 463.879 408.805 464.708C403.411 466.368 398.017 465.953 392.208 465.953C383.91 465.953 376.027 466.783 368.144 467.613C363.995 468.028 359.846 468.443 356.112 468.028C352.378 467.613 348.644 466.783 345.324 466.368C341.175 465.953 337.441 465.953 333.292 465.123C329.973 464.708 327.483 464.708 324.579 465.123C322.09 465.538 319.6 465.123 316.696 465.123C314.207 465.538 311.302 465.953 308.813 466.368C298.855 468.857 287.653 474.251 275.206 471.347Z" fill="#00C4FF"/>
<path fill-rule="evenodd" clip-rule="evenodd" d="M265.663 561.381C265.663 561.381 311.717 569.264 332.462 568.849C363.995 568.019 400.507 571.754 428.72 572.583C456.934 573.413 506.307 550.179 515.435 546.03C524.563 541.88 546.138 529.433 565.224 508.273C584.309 487.113 591.778 452.676 591.778 452.676H583.895C583.895 452.676 580.99 467.613 569.373 484.209C562.32 494.166 552.362 502.879 538.67 514.912C518.755 531.923 493.03 545.2 466.891 551.838C432.04 560.551 401.337 558.062 379.762 561.381C349.059 565.945 280.184 555.157 280.184 555.157L265.663 561.381Z" fill="url(#paint12_radial_13_244)"/>
<path fill-rule="evenodd" clip-rule="evenodd" d="M253.633 538.562C253.633 538.562 261.101 557.647 265.665 561.381C265.665 561.381 275.622 561.796 280.601 556.817L266.495 545.615L253.633 538.562Z" fill="url(#paint13_radial_13_244)"/>
<path fill-rule="evenodd" clip-rule="evenodd" d="M459.423 211.616C459.423 211.616 500.499 215.766 510.042 222.404C510.042 222.404 503.403 229.872 495.52 231.117C495.935 230.702 462.743 212.446 459.423 211.616Z" fill="#EE8CFF"/>
<path fill-rule="evenodd" clip-rule="evenodd" d="M217.118 287.959L234.129 285.47L240.767 276.757C240.767 276.342 228.735 281.735 217.118 287.959Z" fill="#FF61C7"/>
<path opacity="0.5" fill-rule="evenodd" clip-rule="evenodd" d="M230.813 526.529C230.813 526.529 310.474 549.764 372.295 551.008C434.531 552.253 457.766 538.561 484.734 527.774C511.703 517.401 555.683 493.751 568.96 475.91C582.237 458.485 592.609 416.994 592.609 416.994C592.609 416.994 579.747 479.23 568.96 490.017C557.757 500.805 508.799 534.412 500.086 538.561C491.373 542.71 468.138 560.551 425.403 555.572C425.403 555.572 396.775 559.721 386.402 558.891C376.029 558.062 359.848 568.434 330.39 558.891C330.39 558.891 289.314 556.817 280.601 554.742C271.473 553.083 230.813 526.529 230.813 526.529Z" fill="#54469B"/>
<path fill-rule="evenodd" clip-rule="evenodd" d="M250.31 442.719C250.31 442.719 316.28 454.336 363.994 449.357C411.708 444.378 437.432 432.346 451.124 423.633C464.816 414.92 491.37 386.292 501.327 373.015C511.285 360.153 516.264 327.375 516.264 327.375C516.264 327.375 517.924 358.908 510.04 373.015C501.742 386.707 473.944 412.846 462.326 420.314C450.709 427.782 417.932 446.038 400.921 448.942C383.909 451.847 355.696 460.559 334.951 456.825C315.035 453.506 265.247 454.336 250.31 442.719Z" fill="#B04FE2"/>
<path fill-rule="evenodd" clip-rule="evenodd" d="M341.589 548.519C341.589 548.519 410.048 543.955 433.698 538.562C457.347 533.168 488.465 520.721 510.04 512.423C531.615 504.539 548.211 488.773 560.243 480.06C572.276 471.347 587.627 434.835 587.627 434.835C587.627 434.835 577.669 470.932 562.733 482.549C547.796 494.167 509.21 515.742 466.06 535.242C417.516 556.817 380.175 550.594 341.589 548.519Z" fill="#8B40E0"/>
<path fill-rule="evenodd" clip-rule="evenodd" d="M580.991 462.219C582.235 458.9 583.065 455.58 584.31 452.676C580.576 465.953 575.182 478.4 568.958 490.017C567.299 491.677 564.809 493.337 563.15 494.996C561.49 497.071 559.831 498.73 558.171 500.805C549.043 509.518 539.085 517.401 528.298 524.04C517.51 531.093 506.723 537.732 494.691 543.125C485.563 547.274 476.02 550.594 466.477 553.083C458.594 555.157 450.296 555.987 442.413 556.402C438.264 556.817 434.529 557.232 430.38 557.647C425.402 558.062 420.008 558.062 415.444 558.892C406.731 560.551 398.018 561.796 389.305 562.211C381.837 562.626 374.368 563.87 366.9 563.87C357.357 563.87 347.814 562.211 338.272 562.211C329.144 562.211 319.601 561.796 310.473 560.966C305.079 560.551 299.686 559.306 294.292 558.892C289.728 558.477 285.164 557.232 280.6 556.817C276.866 553.913 273.132 551.008 269.398 548.104C268.568 547.274 267.323 546.445 266.493 545.615C271.887 547.274 276.866 548.934 282.259 550.593C289.728 553.083 298.026 554.328 305.494 555.157C311.718 555.987 319.601 556.402 325.824 554.743C332.463 553.083 337.027 555.157 342.836 557.647C345.74 558.892 348.229 559.307 351.134 560.136C355.283 561.381 358.187 560.966 362.336 560.551C366.07 560.136 369.804 559.306 373.124 558.892C376.028 558.062 379.347 556.817 382.251 556.402C387.645 555.572 393.454 554.743 398.848 555.987C405.071 557.232 411.295 557.647 417.518 556.817C424.157 555.572 429.965 555.157 436.604 555.157C438.678 555.157 440.753 555.572 442.828 555.572C445.317 555.987 447.392 555.157 449.881 555.157C454.03 554.743 458.179 553.913 462.328 552.668C466.062 551.423 469.796 549.764 473.53 548.519C480.999 545.615 487.222 543.125 493.861 538.561C499.254 534.827 505.478 532.338 510.872 528.604C516.266 525.284 520.83 520.72 526.223 517.816C532.032 514.497 537.011 509.933 542.405 506.199C545.724 503.709 549.043 500.805 552.362 498.316C555.267 496.241 558.586 494.581 561.49 492.092C566.054 487.943 570.618 483.794 573.937 477.985C576.842 473.006 579.331 467.613 580.991 462.219Z" fill="#00C4FF"/>
<path fill-rule="evenodd" clip-rule="evenodd" d="M370.219 353.099C370.219 353.099 417.518 314.098 437.434 276.342C437.849 276.342 382.251 333.183 370.219 353.099Z" fill="#FF77F4"/>
<path fill-rule="evenodd" clip-rule="evenodd" d="M320.43 399.154C320.43 399.154 350.304 399.154 383.496 385.462C416.688 371.771 433.284 343.142 433.284 343.142C433.284 343.142 410.88 364.717 386.4 376.749C361.921 388.782 343.665 391.686 320.43 399.154Z" fill="#F9C6FF"/>
<path fill-rule="evenodd" clip-rule="evenodd" d="M438.679 336.503C438.679 336.503 441.998 327.79 448.221 312.854C454.445 297.917 459.424 289.619 459.424 289.619C459.424 289.619 457.764 312.853 438.679 336.503Z" fill="#EA9CF4"/>
<path fill-rule="evenodd" clip-rule="evenodd" d="M310.058 478.401C310.058 478.401 351.549 488.358 405.901 478.401C460.254 468.443 462.328 465.124 477.265 453.091C492.201 441.474 502.989 426.538 508.797 420.729C514.606 414.92 522.074 395.42 522.074 395.42C522.074 395.42 506.723 422.803 484.733 441.474C462.743 459.73 444.487 468.858 407.561 474.666C371.049 480.06 328.729 479.23 310.058 478.401Z" fill="#D374F4"/>
<path fill-rule="evenodd" clip-rule="evenodd" d="M346.569 568.849C346.569 568.849 384.325 572.168 399.677 575.072C415.028 578.392 444.486 577.977 461.497 571.753C478.508 565.53 511.701 547.689 511.701 547.689C511.701 547.689 480.583 565.115 443.242 569.264C406.315 572.998 383.495 566.774 346.569 568.849Z" fill="#D374F4"/>
<path fill-rule="evenodd" clip-rule="evenodd" d="M340.762 337.333C340.762 337.333 368.146 316.588 376.859 302.066C385.572 287.13 386.402 278.832 386.402 278.832C386.402 278.832 390.136 293.353 373.955 311.609C357.358 329.865 340.762 337.333 340.762 337.333Z" fill="#F2C4F8"/>
<path fill-rule="evenodd" clip-rule="evenodd" d="M212.142 445.624C211.727 454.751 216.705 465.124 232.887 471.348C249.068 477.571 261.515 475.912 261.515 475.912C261.515 475.912 242.844 472.177 232.472 465.124C222.099 457.241 212.142 445.624 212.142 445.624Z" fill="#F5CEFA"/>
<defs>
<filter id="filter0_f_13_244" x="100.108" y="100" width="592.5" height="594.159" filterUnits="userSpaceOnUse" color-interpolation-filters="sRGB">
<feFlood flood-opacity="0" result="BackgroundImageFix"/>
<feBlend mode="normal" in="SourceGraphic" in2="BackgroundImageFix" result="shape"/>
<feGaussianBlur stdDeviation="50" result="effect1_foregroundBlur_13_244"/>
</filter>
<filter id="filter1_f_13_244" x="0.108398" y="0" width="792.5" height="794.159" filterUnits="userSpaceOnUse" color-interpolation-filters="sRGB">
<feFlood flood-opacity="0" result="BackgroundImageFix"/>
<feBlend mode="normal" in="SourceGraphic" in2="BackgroundImageFix" result="shape"/>
<feGaussianBlur stdDeviation="100" result="effect1_foregroundBlur_13_244"/>
</filter>
<radialGradient id="paint0_radial_13_244" cx="0" cy="0" r="1" gradientUnits="userSpaceOnUse" gradientTransform="translate(273.835 305.41) scale(315.748)">
<stop offset="0.00558659" stop-color="#FF9AFF"/>
<stop offset="0.0930098" stop-color="#FB94FF"/>
<stop offset="0.2093" stop-color="#F183FF"/>
<stop offset="0.3418" stop-color="#E068FF"/>
<stop offset="0.4864" stop-color="#C841FF"/>
<stop offset="0.639" stop-color="#A910FF"/>
<stop offset="0.6844" stop-color="#9F00FF"/>
<stop offset="0.7432" stop-color="#9900F8"/>
<stop offset="0.8282" stop-color="#8700E5"/>
<stop offset="0.9287" stop-color="#6A00C6"/>
<stop offset="1" stop-color="#5200AB"/>
</radialGradient>
<radialGradient id="paint1_radial_13_244" cx="0" cy="0" r="1" gradientUnits="userSpaceOnUse" gradientTransform="translate(273.835 305.41) scale(315.748)">
<stop offset="0.00558659" stop-color="#FF9AFF"/>
<stop offset="0.0930098" stop-color="#FB94FF"/>
<stop offset="0.2093" stop-color="#F183FF"/>
<stop offset="0.3418" stop-color="#E068FF"/>
<stop offset="0.4864" stop-color="#C841FF"/>
<stop offset="0.639" stop-color="#A910FF"/>
<stop offset="0.6844" stop-color="#9F00FF"/>
<stop offset="0.7432" stop-color="#9900F8"/>
<stop offset="0.8282" stop-color="#8700E5"/>
<stop offset="0.9287" stop-color="#6A00C6"/>
<stop offset="1" stop-color="#5200AB"/>
</radialGradient>
<radialGradient id="paint2_radial_13_244" cx="0" cy="0" r="1" gradientUnits="userSpaceOnUse" gradientTransform="translate(264.724 323.995) scale(321.213)">
<stop offset="0.00558659" stop-color="#FF9AFF"/>
<stop offset="0.0930098" stop-color="#FB94FF"/>
<stop offset="0.2093" stop-color="#F183FF"/>
<stop offset="0.3418" stop-color="#E068FF"/>
<stop offset="0.4864" stop-color="#C841FF"/>
<stop offset="0.639" stop-color="#A910FF"/>
<stop offset="0.6844" stop-color="#9F00FF"/>
<stop offset="0.7432" stop-color="#9900F8"/>
<stop offset="0.8282" stop-color="#8700E5"/>
<stop offset="0.9287" stop-color="#6A00C6"/>
<stop offset="1" stop-color="#5200AB"/>
</radialGradient>
<radialGradient id="paint3_radial_13_244" cx="0" cy="0" r="1" gradientUnits="userSpaceOnUse" gradientTransform="translate(264.724 323.995) scale(321.213)">
<stop offset="0.00558659" stop-color="#FF9AFF"/>
<stop offset="0.0930098" stop-color="#FB94FF"/>
<stop offset="0.2093" stop-color="#F183FF"/>
<stop offset="0.3418" stop-color="#E068FF"/>
<stop offset="0.4864" stop-color="#C841FF"/>
<stop offset="0.639" stop-color="#A910FF"/>
<stop offset="0.6844" stop-color="#9F00FF"/>
<stop offset="0.7432" stop-color="#9900F8"/>
<stop offset="0.8282" stop-color="#8700E5"/>
<stop offset="0.9287" stop-color="#6A00C6"/>
<stop offset="1" stop-color="#5200AB"/>
</radialGradient>
<radialGradient id="paint4_radial_13_244" cx="0" cy="0" r="1" gradientUnits="userSpaceOnUse" gradientTransform="translate(273.835 305.41) scale(315.748)">
<stop offset="0.00558659" stop-color="#FF9AFF"/>
<stop offset="0.0930098" stop-color="#FB94FF"/>
<stop offset="0.2093" stop-color="#F183FF"/>
<stop offset="0.3418" stop-color="#E068FF"/>
<stop offset="0.4864" stop-color="#C841FF"/>
<stop offset="0.639" stop-color="#A910FF"/>
<stop offset="0.6844" stop-color="#9F00FF"/>
<stop offset="0.7432" stop-color="#9900F8"/>
<stop offset="0.8282" stop-color="#8700E5"/>
<stop offset="0.9287" stop-color="#6A00C6"/>
<stop offset="1" stop-color="#5200AB"/>
</radialGradient>
<radialGradient id="paint5_radial_13_244" cx="0" cy="0" r="1" gradientUnits="userSpaceOnUse" gradientTransform="translate(315.355 272.016) scale(70.6027)">
<stop offset="0.630208" stop-color="white"/>
<stop offset="1" stop-color="#EF9AFF"/>
</radialGradient>
<radialGradient id="paint6_radial_13_244" cx="0" cy="0" r="1" gradientUnits="userSpaceOnUse" gradientTransform="translate(326.588 297.538) scale(24.5615)">
<stop stop-color="white"/>
<stop offset="1" stop-color="#F7ABFF"/>
</radialGradient>
<radialGradient id="paint7_radial_13_244" cx="0" cy="0" r="1" gradientUnits="userSpaceOnUse" gradientTransform="translate(311.484 295.264) scale(25.8818)">
<stop stop-color="white"/>
<stop offset="1" stop-color="#F9D0FD"/>
</radialGradient>
<radialGradient id="paint8_radial_13_244" cx="0" cy="0" r="1" gradientUnits="userSpaceOnUse" gradientTransform="translate(293.177 270.337) scale(59.7857)">
<stop stop-color="white"/>
<stop offset="1" stop-color="#F7C2FC"/>
</radialGradient>
<radialGradient id="paint9_radial_13_244" cx="0" cy="0" r="1" gradientUnits="userSpaceOnUse" gradientTransform="translate(267.625 247.1) scale(101.364)">
<stop stop-color="white"/>
<stop offset="1" stop-color="#F5AEFE"/>
</radialGradient>
<radialGradient id="paint10_radial_13_244" cx="0" cy="0" r="1" gradientUnits="userSpaceOnUse" gradientTransform="translate(305.192 263.155) scale(141.238)">
<stop offset="0.744792" stop-color="white"/>
<stop offset="0.9998" stop-color="#E886FF"/>
<stop offset="0.9999" stop-color="#ED8CFF"/>
</radialGradient>
<radialGradient id="paint11_radial_13_244" cx="0" cy="0" r="1" gradientUnits="userSpaceOnUse" gradientTransform="translate(261.152 264.194) scale(238.615)">
<stop offset="0.84375" stop-color="#EEADFE"/>
<stop offset="1" stop-color="#B439EE"/>
</radialGradient>
<radialGradient id="paint12_radial_13_244" cx="0" cy="0" r="1" gradientUnits="userSpaceOnUse" gradientTransform="translate(332.678 472.008) scale(188.064 188.064)">
<stop offset="0.572917" stop-color="#EEB9FF"/>
<stop offset="1" stop-color="#7801BD"/>
</radialGradient>
<radialGradient id="paint13_radial_13_244" cx="0" cy="0" r="1" gradientUnits="userSpaceOnUse" gradientTransform="translate(258.623 544.566) scale(20.2971)">
<stop stop-color="#6D00C2"/>
<stop offset="0.3995" stop-color="#6600BC"/>
<stop offset="0.976" stop-color="#5300AC"/>
<stop offset="1" stop-color="#5200AB"/>
</radialGradient>
</defs>
</svg>
