<svg width="366" height="656" viewBox="0 0 366 656" fill="none" xmlns="http://www.w3.org/2000/svg">
<g filter="url(#filter0_f_60_2)">
<path fill-rule="evenodd" clip-rule="evenodd" d="M166 328C166 364.996 150.338 398.211 125.224 421.705C113.342 432.776 99.0295 441.688 83.3671 447.629C69.3249 453.029 53.9325 456 38 456C32.3291 456 26.6582 455.73 21.2574 454.92C-3.31646 451.679 -26 441.418 -44.0928 426.025C-57.3249 414.954 -68.3966 401.181 -76.2279 385.789C-81.0886 376.067 -84.8692 365.536 -87.2996 354.464C-89.1899 345.823 -90 337.181 -90 328C-90 302.616 -82.7089 279.122 -70.0169 259.409C-64.616 251.038 -58.4051 243.207 -51.1139 236.456C-28.1603 214.042 3.43461 200.27 38 200.27C40.7004 200.27 43.6709 200.27 46.3713 200.54C60.9536 201.35 74.7257 204.861 87.6878 210.262C89.8481 211.072 92.0084 212.152 94.1688 213.232C106.591 219.173 117.932 227.274 127.654 236.996C151.418 259.949 166 292.354 166 328Z" fill="url(#paint0_radial_60_2)"/>
</g>
<g filter="url(#filter1_f_60_2)">
<path fill-rule="evenodd" clip-rule="evenodd" d="M166 328C166 364.996 150.338 398.211 125.224 421.705C113.342 432.776 99.0295 441.688 83.3671 447.629C69.3249 453.029 53.9325 456 38 456C32.3291 456 26.6582 455.73 21.2574 454.92C-3.31646 451.679 -26 441.418 -44.0928 426.025C-57.3249 414.954 -68.3966 401.181 -76.2279 385.789C-81.0886 376.067 -84.8692 365.536 -87.2996 354.464C-89.1899 345.823 -90 337.181 -90 328C-90 302.616 -82.7089 279.122 -70.0169 259.409C-64.616 251.038 -58.4051 243.207 -51.1139 236.456C-28.1603 214.042 3.43461 200.27 38 200.27C40.7004 200.27 43.6709 200.27 46.3713 200.54C60.9536 201.35 74.7257 204.861 87.6878 210.262C89.8481 211.072 92.0084 212.152 94.1688 213.232C106.591 219.173 117.932 227.274 127.654 236.996C151.418 259.949 166 292.354 166 328Z" fill="url(#paint1_radial_60_2)"/>
</g>
<path fill-rule="evenodd" clip-rule="evenodd" d="M166 328C166 364.996 150.338 398.211 125.224 421.705C113.342 432.776 99.0295 441.688 83.3671 447.629C69.3249 453.029 53.9325 456 38 456C32.3291 456 26.6582 455.73 21.2574 454.92C-3.31646 451.679 -26 441.418 -44.0928 426.025C-57.3249 414.954 -68.3966 401.181 -76.2279 385.789C-81.0886 376.067 -84.8692 365.536 -87.2996 354.464C-89.1899 345.823 -90 337.181 -90 328C-90 302.616 -82.7089 279.122 -70.0169 259.409C-64.616 251.038 -58.4051 243.207 -51.1139 236.456C-28.1603 214.042 3.43461 200.27 38 200.27C40.7004 200.27 43.6709 200.27 46.3713 200.54C60.9536 201.35 74.7257 204.861 87.6878 210.262C89.8481 211.072 92.0084 212.152 94.1688 213.232C106.591 219.173 117.932 227.274 127.654 236.996C151.418 259.949 166 292.354 166 328Z" fill="url(#paint2_radial_60_2)"/>
<path fill-rule="evenodd" clip-rule="evenodd" d="M115.232 409.553C110.911 409.553 107.671 407.932 106.321 404.692C103.62 398.751 104.97 376.878 113.612 357.705C126.304 329.08 144.127 321.519 151.418 321.519C151.958 321.519 152.498 321.519 152.768 321.519C153.038 321.519 153.308 321.519 153.578 321.789C155.468 322.329 157.359 323.949 158.439 326.38C163.57 336.911 160.599 362.835 152.228 380.928C144.937 397.941 126.844 409.553 115.232 409.553Z" fill="url(#paint3_linear_60_2)"/>
<path fill-rule="evenodd" clip-rule="evenodd" d="M150.608 380.388C140.346 402.532 113.072 413.603 108.481 403.882C106.051 399.021 107.131 378.228 115.772 358.785C128.734 329.89 146.557 323.139 152.768 323.949H153.038C161.949 326.38 160.599 358.515 150.608 380.388Z" fill="url(#paint4_linear_60_2)"/>
<path fill-rule="evenodd" clip-rule="evenodd" d="M148.717 319.899C147.637 319.899 146.827 319.629 146.017 319.089C140.616 315.848 137.105 295.055 140.886 288.574C141.966 286.684 143.316 286.144 144.127 286.144C144.397 286.144 144.937 286.144 145.477 286.144C151.418 286.144 157.359 293.165 159.519 302.346C160.869 308.827 158.169 314.228 154.928 316.928C153.038 318.819 150.878 319.899 148.717 319.899Z" fill="url(#paint5_linear_60_2)"/>
<path fill-rule="evenodd" clip-rule="evenodd" d="M153.578 315.308C151.418 317.468 148.987 318.278 147.367 317.198C143.046 314.768 139.806 295.325 143.046 289.654C143.586 288.844 144.126 288.304 144.667 288.304C148.987 287.494 155.198 293.164 157.359 302.886C158.439 308.017 156.278 312.608 153.578 315.308Z" fill="url(#paint6_linear_60_2)"/>
<path fill-rule="evenodd" clip-rule="evenodd" d="M46.1014 454.38C45.2912 454.38 44.4811 454.38 43.671 454.38C30.4389 454.11 20.4473 448.439 18.8271 443.578C18.287 441.688 18.557 439.797 19.9072 438.717C23.9579 435.207 40.9705 434.937 44.4811 434.937C55.5528 434.937 69.0549 436.017 70.1351 441.148C70.4051 442.498 70.4051 444.388 68.2448 446.819C65.2743 449.789 61.2237 454.38 46.1014 454.38Z" fill="url(#paint7_linear_60_2)"/>
<path fill-rule="evenodd" clip-rule="evenodd" d="M66.6246 444.928C63.3841 448.439 59.6035 452.489 43.671 452.219C28.2786 451.679 17.4769 443.578 21.2575 440.338C26.3883 436.017 66.3546 435.747 67.7048 441.688C68.2449 442.498 67.9748 443.848 66.6246 444.928Z" fill="url(#paint8_linear_60_2)"/>
<path fill-rule="evenodd" clip-rule="evenodd" d="M108.211 329.89C99.5695 329.89 93.0885 325.84 89.578 318.549C81.4767 300.726 81.4767 266.16 87.4176 252.388C89.0379 248.878 90.6581 246.717 92.8185 245.907C94.9788 245.097 97.1391 244.557 99.5695 244.557C107.131 244.557 114.962 249.688 122.253 259.139C134.135 274.802 142.506 300.186 139.266 311.527C138.186 315.038 135.215 319.089 130.354 322.329C123.603 326.92 115.502 329.89 108.211 329.89Z" fill="url(#paint9_linear_60_2)"/>
<path fill-rule="evenodd" clip-rule="evenodd" d="M137.106 310.717C136.295 313.958 133.325 317.468 129.004 320.439C117.933 328.54 98.4896 332.861 91.4685 317.739C83.6373 300.456 83.6373 266.701 89.3082 253.198C90.3883 250.498 92.0086 248.608 93.6288 247.798C117.663 237.806 141.696 293.975 137.106 310.717Z" fill="url(#paint10_linear_60_2)"/>
<path fill-rule="evenodd" clip-rule="evenodd" d="M66.6243 444.928C40.1602 453.029 21.2572 440.067 21.2572 440.067C26.388 435.747 66.3543 435.477 67.7045 441.418C68.2446 442.498 67.9745 443.848 66.6243 444.928Z" fill="#FFFF45"/>
<path fill-rule="evenodd" clip-rule="evenodd" d="M146.287 378.228C128.194 407.662 108.211 403.882 108.211 403.882C105.781 399.021 106.861 378.228 115.502 358.785C128.464 329.89 146.287 323.139 152.498 323.949H152.768C156.549 335.021 159.249 357.165 146.287 378.228Z" fill="#FFFF45"/>
<path fill-rule="evenodd" clip-rule="evenodd" d="M129.004 320.439C117.933 328.54 98.4896 332.861 91.4685 317.739C83.6373 300.456 83.6373 266.701 89.3082 253.199C94.1689 252.658 103.62 254.279 114.152 269.941C129.274 291.545 134.135 308.017 129.004 320.439Z" fill="#FFFF45"/>
<path fill-rule="evenodd" clip-rule="evenodd" d="M153.578 315.308C151.418 317.468 148.987 318.279 147.367 317.198C143.046 314.768 139.806 295.325 143.046 289.654C146.287 291.544 151.418 295.595 152.768 302.886C153.308 307.477 153.578 311.798 153.578 315.308Z" fill="#FFFF45"/>
<path opacity="0.3" fill-rule="evenodd" clip-rule="evenodd" d="M104.43 358.245C103.08 361.215 101.73 363.916 99.8396 366.616C98.2194 368.506 96.3291 370.127 95.2489 372.287C91.1983 379.848 92.0084 388.489 89.8481 396.321C88.4979 400.641 85.2574 404.152 83.9072 408.473C83.3671 410.363 83.6371 412.253 83.6371 414.414C83.6371 416.844 82.2869 418.464 80.9367 420.354C79.3164 422.515 77.1561 423.865 74.7257 424.945C72.8354 425.755 70.6751 425.485 68.5148 425.485C63.924 425.485 59.6034 424.945 55.0126 423.595C50.962 422.515 47.1814 420.624 43.1308 419.274C40.4304 418.464 38.27 418.734 35.5696 419.274C33.1392 419.814 30.4388 419.544 28.0084 419.544C23.6877 419.544 19.6371 421.975 15.8565 423.865C13.1561 425.215 11.2658 426.835 10.1856 429.806C8.83543 433.316 8.83543 436.557 4.7848 437.907C2.35442 438.717 -0.616051 437.907 -3.04643 437.367C-5.20677 436.827 -7.63715 437.097 -9.79749 437.097C-14.1182 437.097 -18.1688 435.747 -22.2194 433.857C-26.8101 431.426 -30.8608 427.916 -34.3713 424.405C-36.2616 422.515 -38.9621 421.435 -40.8523 419.544C-43.5528 417.114 -46.5232 414.684 -48.9536 412.253C-53.0042 408.203 -57.3249 404.152 -61.6456 400.371C-64.8861 397.941 -67.5865 394.7 -70.2869 391.73C-72.4473 389.3 -73.7975 385.789 -75.4177 382.819C-78.6583 377.148 -81.3587 370.667 -82.9789 364.186C-84.8692 356.895 -87.0296 349.063 -86.7595 341.502C-86.7595 335.021 -87.5696 329.08 -87.5696 322.599C-88.1097 334.751 -87.5696 344.743 -86.2194 354.194C-88.1097 345.553 -88.9199 336.911 -88.9199 327.73C-88.9199 302.346 -81.6287 278.852 -68.9367 259.139C-63.5359 250.768 -57.3249 242.937 -50.0338 236.186C-27.0802 213.772 4.51474 200 39.0802 200C41.7806 200 44.7511 200 47.4515 200.27C62.0338 201.08 75.8059 204.591 88.7679 209.992C92.0084 213.502 95.249 217.553 97.6793 221.603C98.7595 223.224 99.2996 225.114 100.38 226.734C101.19 228.354 102.27 228.895 102 230.785C101.73 231.865 101.19 233.215 100.65 234.295C99.2996 237.806 95.249 240.236 92.2785 242.127C87.9578 244.827 83.097 245.907 78.5063 248.338C75.5359 249.958 74.7257 251.308 72.5654 253.738C71.4852 255.089 70.135 255.899 69.3249 257.249C66.8945 261.03 65.5443 266.43 65.8143 270.751C66.0844 279.392 72.8354 285.603 74.4557 293.705C75.8059 300.726 74.7257 308.287 77.1561 315.038C79.5865 322.869 86.3376 329.08 92.8186 333.671C95.519 335.561 97.9494 337.181 100.38 339.342C102.54 341.502 105.511 342.582 107.131 345.283C108.481 349.603 106.051 354.194 104.43 358.245Z" fill="url(#paint11_linear_60_2)"/>
<path fill-rule="evenodd" clip-rule="evenodd" d="M94.1688 212.962C93.6287 212.962 93.3586 212.962 92.8185 213.232C91.4683 213.502 90.1181 213.232 88.7679 212.962C87.6877 212.692 87.1477 212.152 85.7975 212.152C84.1772 211.882 82.827 211.342 81.2067 211.072C79.5865 210.802 78.2363 210.262 76.616 209.722C75.2658 209.181 74.7257 209.451 73.6456 209.722C72.5654 209.992 71.7553 209.451 70.6751 209.181C69.5949 208.641 68.2447 208.641 67.1645 208.371C63.924 207.831 60.6835 206.751 57.443 205.941C55.5527 205.401 53.6624 205.401 51.5021 205.401C49.8819 205.401 48.5316 205.941 46.9114 205.941C45.8312 205.941 45.0211 205.671 43.9409 205.671C42.8607 205.401 41.7806 205.671 40.7004 205.671C39.0802 205.401 38.27 205.131 36.6498 205.671C35.2996 205.941 34.4894 205.941 33.1392 206.211C31.789 206.211 30.1688 206.751 28.8186 207.021C26.3882 207.561 23.6877 208.101 21.2574 208.101C19.6371 208.101 17.4768 207.561 16.1266 208.101C15.3164 208.371 14.7764 209.451 13.9662 209.992C12.616 211.342 11.2658 212.422 10.1856 213.772C9.10547 215.122 8.02529 216.743 8.02529 218.633C8.02529 220.253 8.83543 222.143 9.64556 223.494C10.4557 225.114 10.7257 226.464 9.10546 227.544C7.21516 228.895 4.78478 229.975 2.62444 230.785C1.00419 231.325 -0.346016 231.595 -1.42619 230.515C-1.96627 230.245 -2.23631 229.435 -2.7764 228.895C-3.31648 228.624 -4.1266 228.895 -4.66669 229.165C-6.28694 229.705 -7.9072 230.245 -9.52745 230.515C-10.6076 230.785 -11.4177 231.325 -12.4979 231.325C-13.5781 231.595 -14.3882 230.785 -15.7384 231.055C-17.3587 231.325 -19.249 232.135 -20.8692 232.135C-22.2194 232.135 -23.8397 231.595 -24.9199 231.055C-25.4599 230.785 -25.73 230.245 -26.5401 230.515C-27.0802 230.515 -27.8903 231.325 -28.1604 231.865C-28.7004 232.405 -28.7004 233.215 -29.2405 233.755C-29.7806 234.565 -30.0506 235.105 -30.5907 235.916C-31.4009 237.266 -32.211 238.616 -33.0211 239.966C-33.5612 240.776 -34.1013 242.127 -34.9114 242.937C-35.1814 243.477 -35.9916 243.747 -36.5317 244.017C-37.8819 244.827 -39.2321 245.907 -40.5823 246.717C-43.0127 248.608 -45.4431 250.768 -47.8734 252.658C-49.7637 254.008 -52.4642 254.819 -54.6245 255.899C-55.9747 256.439 -57.3249 256.979 -58.6751 257.519C-59.2152 257.789 -60.0253 257.789 -60.2954 258.329C-60.8355 258.869 -61.1055 259.409 -61.3755 260.219C-62.4557 261.57 -63.8059 263.19 -64.6161 264.81C-65.1561 265.89 -65.4262 266.7 -65.9663 267.781C-66.5064 269.131 -67.3165 270.481 -67.5865 272.101C-68.6667 275.072 -68.6667 278.312 -70.0169 281.283C-70.557 282.903 -71.6371 284.523 -72.4473 286.143C-73.7975 288.844 -74.0675 292.084 -74.3376 295.055C-74.6076 296.675 -74.3376 298.835 -74.0675 300.456C-73.7975 302.346 -73.7975 304.236 -73.7975 306.127C-73.7975 308.017 -75.1477 310.177 -76.2279 311.527C-77.308 312.878 -79.1983 313.418 -80.5485 314.768C-81.6287 315.848 -82.9789 316.928 -83.519 318.549C-83.7891 319.089 -83.519 319.899 -83.519 320.709C-83.7891 322.329 -84.3291 323.679 -84.3291 325.3C-84.5992 327.19 -84.5992 329.08 -84.5992 331.241C-84.5992 332.321 -84.5992 333.131 -84.5992 334.211C-84.5992 335.291 -84.3291 336.101 -84.0591 336.911C-84.0591 337.452 -84.0591 338.262 -84.0591 338.802C-84.0591 339.612 -83.519 340.422 -83.519 340.962C-82.9789 342.852 -82.7089 344.473 -82.4388 346.363C-82.1688 347.983 -81.3587 349.603 -81.0886 351.224C-80.2785 353.384 -80.0085 355.544 -79.4684 357.975C-79.1983 359.595 -79.1983 361.485 -78.9283 363.106C-78.6582 364.456 -78.3882 365.806 -78.3882 367.156C-78.3882 369.316 -78.9283 371.207 -78.9283 373.367C-78.9283 376.878 -77.5781 380.388 -76.768 383.899C-76.4979 384.979 -76.2279 385.789 -75.9578 386.869C-84.8692 369.587 -89.73 349.873 -89.73 329.08C-89.73 303.696 -82.4388 280.203 -69.7469 260.489C-64.346 252.118 -58.135 244.287 -50.8439 237.536C-27.8903 215.122 3.70463 201.35 38.27 201.35C40.9704 201.35 43.9409 201.35 46.6413 201.62C63.3839 201.62 79.5865 205.941 94.1688 212.962Z" fill="url(#paint12_linear_60_2)"/>
<path opacity="0.3" fill-rule="evenodd" clip-rule="evenodd" d="M83.097 425.485C85.5274 423.865 87.9578 422.515 90.6582 420.895C93.3587 419.274 96.0591 418.464 99.0295 417.114C101.19 416.304 101.46 416.304 103.08 417.654C104.7 419.004 106.591 419.274 108.481 419.274C111.181 419.274 114.152 419.544 114.422 423.055C114.692 427.916 107.671 431.966 104.16 433.857C101.46 435.477 98.4894 436.557 95.519 437.907C93.0886 438.987 90.3882 440.338 87.6877 440.608C85.2574 440.878 83.9072 439.798 82.2869 438.177C80.3966 436.017 80.6667 434.127 80.6667 431.696C80.6667 428.456 80.6667 426.295 83.097 425.485Z" fill="url(#paint13_linear_60_2)"/>
<path opacity="0.3" fill-rule="evenodd" clip-rule="evenodd" d="M121.173 246.447C123.063 250.228 124.413 255.359 127.384 258.599C129.004 260.219 130.084 260.489 132.245 260.489C133.325 260.489 135.215 260.76 136.295 260.489C137.646 259.949 137.646 258.329 137.646 256.979C137.376 251.848 134.135 247.257 130.894 243.747C128.734 241.316 125.494 238.616 121.983 239.156C120.903 241.586 120.633 244.017 121.173 246.447Z" fill="url(#paint14_linear_60_2)"/>
<path fill-rule="evenodd" clip-rule="evenodd" d="M50.692 447.899C50.422 448.439 49.8819 448.709 50.152 449.249C50.422 449.519 50.9621 449.789 51.2321 449.789C51.7722 450.059 52.8524 449.789 53.3925 449.519C53.9326 449.249 53.6625 448.709 53.3925 448.169C52.8524 447.359 52.0422 447.089 51.2321 447.629L50.692 447.899Z" fill="#FFFF45"/>
<path fill-rule="evenodd" clip-rule="evenodd" d="M0.463989 386.869C1.27412 387.139 1.81419 387.409 2.62431 387.679C2.89436 387.409 3.16441 387.409 3.43445 387.409C3.70449 387.139 3.97454 386.599 4.24458 386.329C4.51463 385.789 4.24457 385.249 3.97453 384.709C3.70448 384.439 3.70449 383.899 3.43445 383.629C3.16441 383.359 2.35428 383.359 2.08424 383.629C1.54415 383.899 1.27411 384.169 1.00407 384.709C0.734023 384.979 0.463989 385.789 0.463989 386.059C0.463989 386.599 0.734019 387.139 1.2741 387.409L0.463989 386.869Z" fill="#FFFF45"/>
<path fill-rule="evenodd" clip-rule="evenodd" d="M25.8481 224.304C25.8481 224.034 26.1182 223.494 26.1182 223.224L26.3882 222.954C26.6583 222.684 26.6583 222.684 26.9283 222.684C27.1983 222.684 27.4684 222.684 28.0085 222.954C29.0886 223.764 26.3882 224.574 26.1182 223.764L25.8481 224.304Z" fill="#FFFF45"/>
<path fill-rule="evenodd" clip-rule="evenodd" d="M35.0294 227.815C34.7594 228.355 34.4893 229.165 35.0294 229.705C35.5695 229.975 36.6497 229.435 36.9197 229.165C37.7298 228.625 38.54 227.274 37.7298 226.464C37.4598 225.924 36.1096 225.654 35.5695 225.654C34.2193 225.654 33.9492 227.274 33.6792 228.625L35.0294 227.815Z" fill="#FFFF45"/>
<path fill-rule="evenodd" clip-rule="evenodd" d="M39.0801 215.122C38.8101 214.042 38.8101 212.962 39.6202 212.422C40.1603 212.152 40.9704 211.882 41.5105 212.422C41.7805 212.692 42.0506 213.232 42.3206 213.502C42.5907 214.042 42.5907 214.042 42.3206 214.582C42.0506 215.662 41.7805 216.473 40.4303 216.473C38.8101 216.473 38.8101 215.392 38.8101 213.772V215.122H39.0801Z" fill="#FFFF45"/>
<path fill-rule="evenodd" clip-rule="evenodd" d="M52.8523 234.025C53.6624 233.755 54.4725 233.485 55.0126 232.675C54.4725 232.405 53.1223 231.595 52.8523 232.675V234.025Z" fill="#FFFF45"/>
<path fill-rule="evenodd" clip-rule="evenodd" d="M5.32483 404.152C6.13496 403.882 6.94509 403.612 7.48517 402.802C6.94509 402.532 5.59487 401.722 5.32483 402.802V404.152Z" fill="#FFC445"/>
<path fill-rule="evenodd" clip-rule="evenodd" d="M93.0884 422.515C93.8985 422.245 94.7086 421.975 95.2487 421.165C94.7086 420.895 93.3584 420.085 93.0884 421.165V422.515Z" fill="#FFC445"/>
<path fill-rule="evenodd" clip-rule="evenodd" d="M63.3839 250.498C64.1941 249.418 65.2742 247.797 66.8945 248.608C67.7046 249.148 67.9747 250.768 67.1645 251.308C66.3544 251.848 65.8143 252.118 64.7341 252.388C64.1941 252.658 63.1139 252.118 63.3839 251.038V250.498Z" fill="#FFFF45"/>
<path fill-rule="evenodd" clip-rule="evenodd" d="M6.40499 273.992C7.21512 272.911 8.2953 271.291 9.91555 272.101C10.7257 272.641 10.9957 274.262 10.1856 274.802C9.37546 275.342 8.83537 275.612 7.75521 275.882C7.21512 276.152 6.13495 275.612 6.40499 274.532V273.992Z" fill="#FFC445"/>
<path fill-rule="evenodd" clip-rule="evenodd" d="M100.92 232.135C101.73 231.055 102.81 229.435 104.43 230.245C105.24 230.785 105.51 232.405 104.7 232.945C103.89 233.485 103.35 233.755 102.27 234.025C101.73 234.295 100.65 233.755 100.92 232.675V232.135Z" fill="#FFC445"/>
<path fill-rule="evenodd" clip-rule="evenodd" d="M47.9916 319.359C48.8017 318.279 49.8819 316.658 51.5022 317.468C52.3123 318.009 52.5823 319.629 51.7722 320.169C50.9621 320.709 50.422 320.979 49.3418 321.249C48.8017 321.519 47.7216 320.979 47.9916 319.899V319.359Z" fill="#FFC445"/>
<path fill-rule="evenodd" clip-rule="evenodd" d="M1.81421 238.616C0.734041 239.156 -0.886208 239.966 -1.15625 241.587C-1.15625 242.397 -0.886224 242.937 -0.0760976 243.207C0.463987 243.477 1.54416 243.477 2.35429 243.207C3.43445 242.667 4.51463 241.857 4.78467 241.047C5.05471 240.236 5.05471 239.696 4.78467 239.156C4.51463 238.886 4.24458 238.346 3.7045 238.076C2.35429 237.536 1.54417 238.886 0.463999 239.426L1.81421 238.616Z" fill="#FFFF45"/>
<path fill-rule="evenodd" clip-rule="evenodd" d="M5.0546 234.835C5.59468 235.105 6.13477 235.376 6.40481 235.916C5.86473 236.186 5.32465 236.456 4.78456 236.456C3.97443 236.186 3.97443 235.375 3.97443 234.835C3.97443 234.565 4.78456 233.755 5.0546 234.025C5.32464 234.025 5.32464 234.295 5.32464 234.565C5.59468 234.835 5.59468 234.835 5.32464 235.376H5.0546V234.835Z" fill="#FFFF45"/>
<path fill-rule="evenodd" clip-rule="evenodd" d="M22.0673 212.962C22.8774 212.422 23.6876 212.152 24.4977 211.882C25.5779 211.612 26.658 211.612 27.7382 211.612C28.2783 211.612 29.6285 211.612 29.0884 212.422C28.8184 213.502 26.658 214.312 25.8479 214.582C24.4977 215.122 23.1475 215.932 21.5272 216.203C20.7171 216.203 19.3669 216.473 18.8268 215.662C18.5567 214.852 18.5568 214.312 19.0968 213.772C19.3669 213.232 19.907 212.962 20.7171 212.692C20.9871 212.692 22.8774 212.152 22.8774 212.692L22.0673 212.962Z" fill="#FFFF45"/>
<path fill-rule="evenodd" clip-rule="evenodd" d="M7.75515 213.232C7.48511 213.502 4.51465 215.122 5.86486 215.932C6.67499 216.203 8.0252 216.203 8.83532 215.932C9.37541 215.662 10.1855 215.122 9.64546 214.312C8.83533 212.692 6.67499 213.772 5.59482 214.312L7.75515 213.232Z" fill="#FFFF45"/>
<path fill-rule="evenodd" clip-rule="evenodd" d="M59.3331 320.439C59.6032 321.519 59.8732 322.869 60.9534 323.679C62.0336 324.49 63.3838 324.22 64.1939 323.409C65.004 322.869 65.8142 322.329 66.3542 322.059C66.8943 321.789 67.1644 321.789 67.1644 320.979C67.1644 320.169 66.6243 319.359 66.0842 318.819C65.5441 318.279 64.734 317.469 63.9239 317.198C62.3036 316.658 59.3331 317.198 59.3331 319.359V320.439Z" fill="#FFBA00"/>
<path fill-rule="evenodd" clip-rule="evenodd" d="M137.376 303.696C137.376 303.696 133.595 314.498 133.055 316.118C133.055 315.848 138.996 314.228 137.376 303.696Z" fill="#FFFF59"/>
<path fill-rule="evenodd" clip-rule="evenodd" d="M157.629 306.937C157.629 306.937 154.928 308.827 153.578 313.958C153.578 313.958 156.819 315.578 157.629 306.937Z" fill="#FFFF59"/>
<path fill-rule="evenodd" clip-rule="evenodd" d="M116.312 407.393C116.312 407.393 128.464 399.561 135.485 399.021C135.485 399.021 127.384 408.743 116.312 407.393Z" fill="#FFFF59"/>
<defs>
<filter id="filter0_f_60_2" x="-190" y="100.27" width="456" height="455.73" filterUnits="userSpaceOnUse" color-interpolation-filters="sRGB">
<feFlood flood-opacity="0" result="BackgroundImageFix"/>
<feBlend mode="normal" in="SourceGraphic" in2="BackgroundImageFix" result="shape"/>
<feGaussianBlur stdDeviation="50" result="effect1_foregroundBlur_60_2"/>
</filter>
<filter id="filter1_f_60_2" x="-290" y="0.27002" width="656" height="655.73" filterUnits="userSpaceOnUse" color-interpolation-filters="sRGB">
<feFlood flood-opacity="0" result="BackgroundImageFix"/>
<feBlend mode="normal" in="SourceGraphic" in2="BackgroundImageFix" result="shape"/>
<feGaussianBlur stdDeviation="100" result="effect1_foregroundBlur_60_2"/>
</filter>
<radialGradient id="paint0_radial_60_2" cx="0" cy="0" r="1" gradientUnits="userSpaceOnUse" gradientTransform="translate(-41.09 268.254) scale(205.508)">
<stop offset="0.00558659" stop-color="#FFB80B"/>
<stop offset="0.258" stop-color="#FFB60C"/>
<stop offset="0.384" stop-color="#FEAE10"/>
<stop offset="0.4821" stop-color="#FCA117"/>
<stop offset="0.5656" stop-color="#FA8E21"/>
<stop offset="0.6392" stop-color="#F7762E"/>
<stop offset="0.662" stop-color="#F66D33"/>
<stop offset="0.7209" stop-color="#EF6836"/>
<stop offset="0.8061" stop-color="#DC593D"/>
<stop offset="0.9068" stop-color="#BD4049"/>
<stop offset="0.9832" stop-color="#A02A54"/>
</radialGradient>
<radialGradient id="paint1_radial_60_2" cx="0" cy="0" r="1" gradientUnits="userSpaceOnUse" gradientTransform="translate(-41.09 268.254) scale(205.508)">
<stop offset="0.00558659" stop-color="#FFB80B"/>
<stop offset="0.258" stop-color="#FFB60C"/>
<stop offset="0.384" stop-color="#FEAE10"/>
<stop offset="0.4821" stop-color="#FCA117"/>
<stop offset="0.5656" stop-color="#FA8E21"/>
<stop offset="0.6392" stop-color="#F7762E"/>
<stop offset="0.662" stop-color="#F66D33"/>
<stop offset="0.7209" stop-color="#EF6836"/>
<stop offset="0.8061" stop-color="#DC593D"/>
<stop offset="0.9068" stop-color="#BD4049"/>
<stop offset="0.9832" stop-color="#A02A54"/>
</radialGradient>
<radialGradient id="paint2_radial_60_2" cx="0" cy="0" r="1" gradientUnits="userSpaceOnUse" gradientTransform="translate(-41.09 268.254) scale(205.508)">
<stop offset="0.00558659" stop-color="#FFB80B"/>
<stop offset="0.258" stop-color="#FFB60C"/>
<stop offset="0.384" stop-color="#FEAE10"/>
<stop offset="0.4821" stop-color="#FCA117"/>
<stop offset="0.5656" stop-color="#FA8E21"/>
<stop offset="0.6392" stop-color="#F7762E"/>
<stop offset="0.662" stop-color="#F66D33"/>
<stop offset="0.7209" stop-color="#EF6836"/>
<stop offset="0.8061" stop-color="#DC593D"/>
<stop offset="0.9068" stop-color="#BD4049"/>
<stop offset="0.9832" stop-color="#A02A54"/>
</radialGradient>
<linearGradient id="paint3_linear_60_2" x1="133.129" y1="409.601" x2="133.129" y2="321.839" gradientUnits="userSpaceOnUse">
<stop offset="0.0111732" stop-color="#FF8E0B"/>
<stop offset="0.3475" stop-color="#FD8B0D"/>
<stop offset="0.5941" stop-color="#F98215"/>
<stop offset="0.8113" stop-color="#F17221"/>
<stop offset="1" stop-color="#E65D31"/>
</linearGradient>
<linearGradient id="paint4_linear_60_2" x1="107.276" y1="365.72" x2="158.93" y2="365.72" gradientUnits="userSpaceOnUse">
<stop offset="0.0111732" stop-color="#FFE00B"/>
<stop offset="0.3061" stop-color="#FFDD0D"/>
<stop offset="0.5224" stop-color="#FFD412"/>
<stop offset="0.7136" stop-color="#FFC41B"/>
<stop offset="0.8891" stop-color="#FFAD27"/>
<stop offset="1" stop-color="#FF9B31"/>
</linearGradient>
<linearGradient id="paint5_linear_60_2" x1="149.647" y1="319.794" x2="149.647" y2="285.923" gradientUnits="userSpaceOnUse">
<stop offset="0.0111732" stop-color="#FFA90B"/>
<stop offset="0.3713" stop-color="#FFA60E"/>
<stop offset="0.6354" stop-color="#FF9D16"/>
<stop offset="0.868" stop-color="#FF8D25"/>
<stop offset="1" stop-color="#FF8031"/>
</linearGradient>
<linearGradient id="paint6_linear_60_2" x1="149.629" y1="317.574" x2="149.629" y2="288.143" gradientUnits="userSpaceOnUse">
<stop offset="0.0111732" stop-color="#FFE00B"/>
<stop offset="0.3061" stop-color="#FFDD0D"/>
<stop offset="0.5224" stop-color="#FFD412"/>
<stop offset="0.7136" stop-color="#FFC41B"/>
<stop offset="0.8891" stop-color="#FFAD27"/>
<stop offset="1" stop-color="#FF9B31"/>
</linearGradient>
<linearGradient id="paint7_linear_60_2" x1="44.4122" y1="454.389" x2="44.4122" y2="434.657" gradientUnits="userSpaceOnUse">
<stop offset="0.0111732" stop-color="#FFA90B"/>
<stop offset="0.3713" stop-color="#FFA60E"/>
<stop offset="0.6354" stop-color="#FF9D16"/>
<stop offset="0.868" stop-color="#FF8D25"/>
<stop offset="1" stop-color="#FF8031"/>
</linearGradient>
<linearGradient id="paint8_linear_60_2" x1="44.4098" y1="452.17" x2="44.4098" y2="436.877" gradientUnits="userSpaceOnUse">
<stop offset="0.0111732" stop-color="#FFE00B"/>
<stop offset="0.3061" stop-color="#FFDD0D"/>
<stop offset="0.5224" stop-color="#FFD412"/>
<stop offset="0.7136" stop-color="#FFC41B"/>
<stop offset="0.8891" stop-color="#FFAD27"/>
<stop offset="1" stop-color="#FF9B31"/>
</linearGradient>
<linearGradient id="paint9_linear_60_2" x1="106.271" y1="329.917" x2="117.339" y2="246.548" gradientUnits="userSpaceOnUse">
<stop offset="0.0111732" stop-color="#FFA90B"/>
<stop offset="0.3713" stop-color="#FFA60E"/>
<stop offset="0.6354" stop-color="#FF9D16"/>
<stop offset="0.868" stop-color="#FF8D25"/>
<stop offset="1" stop-color="#FF8031"/>
</linearGradient>
<linearGradient id="paint10_linear_60_2" x1="106.557" y1="327.72" x2="117.042" y2="248.746" gradientUnits="userSpaceOnUse">
<stop offset="0.0111732" stop-color="#FFE00B"/>
<stop offset="0.3061" stop-color="#FFDD0D"/>
<stop offset="0.5224" stop-color="#FFD412"/>
<stop offset="0.7136" stop-color="#FFC41B"/>
<stop offset="0.8891" stop-color="#FFAD27"/>
<stop offset="1" stop-color="#FF9B31"/>
</linearGradient>
<linearGradient id="paint11_linear_60_2" x1="-89.7883" y1="319.184" x2="106.976" y2="319.184" gradientUnits="userSpaceOnUse">
<stop offset="0.0111732" stop-color="#FFE00B"/>
<stop offset="0.3061" stop-color="#FFDD0D"/>
<stop offset="0.5224" stop-color="#FFD412"/>
<stop offset="0.7136" stop-color="#F67C27"/>
<stop offset="0.8891" stop-color="#ED6930"/>
<stop offset="1" stop-color="#E76332"/>
</linearGradient>
<linearGradient id="paint12_linear_60_2" x1="-89.7883" y1="292.988" x2="94.2449" y2="292.988" gradientUnits="userSpaceOnUse">
<stop offset="0.0111732" stop-color="#FFE00B"/>
<stop offset="0.3061" stop-color="#FFDD0D"/>
<stop offset="0.5224" stop-color="#FFD412"/>
<stop offset="0.7136" stop-color="#FFC41B"/>
<stop offset="0.8891" stop-color="#FFAD27"/>
<stop offset="1" stop-color="#FF9B31"/>
</linearGradient>
<linearGradient id="paint13_linear_60_2" x1="80.7566" y1="428.579" x2="114.503" y2="428.579" gradientUnits="userSpaceOnUse">
<stop offset="0.0111732" stop-color="#FFE00B"/>
<stop offset="0.3061" stop-color="#FFDD0D"/>
<stop offset="0.5224" stop-color="#FFD412"/>
<stop offset="0.7136" stop-color="#FFC41B"/>
<stop offset="0.8891" stop-color="#FFAD27"/>
<stop offset="1" stop-color="#FF9B31"/>
</linearGradient>
<linearGradient id="paint14_linear_60_2" x1="120.825" y1="249.963" x2="137.434" y2="249.963" gradientUnits="userSpaceOnUse">
<stop offset="0.0111732" stop-color="#FFE00B"/>
<stop offset="0.3061" stop-color="#FFDD0D"/>
<stop offset="0.5224" stop-color="#FFD412"/>
<stop offset="0.7136" stop-color="#FFC41B"/>
<stop offset="0.8891" stop-color="#FFAD27"/>
<stop offset="1" stop-color="#FF9B31"/>
</linearGradient>
</defs>
</svg>
