<svg width="375" height="656" viewBox="0 0 375 656" fill="none" xmlns="http://www.w3.org/2000/svg">
<g filter="url(#filter0_f_13_246)">
<path fill-rule="evenodd" clip-rule="evenodd" d="M175 327.865C175 340.3 173.378 352.194 170.134 363.278C163.646 385.985 150.941 405.989 134.181 421.668C122.286 432.752 107.959 441.673 92.5502 447.62C78.4932 453.026 63.0845 456 47.1352 456C44.9726 456 42.5397 456 40.3771 455.73C37.1331 455.459 33.6189 455.189 30.375 454.919C5.50488 451.675 -16.9323 441.402 -35.0442 425.994C-41.8023 420.317 -48.0199 413.829 -53.6967 406.8C-57.7516 401.664 -61.5362 395.987 -65.0505 390.04C-65.8615 388.688 -66.6724 387.337 -67.2131 385.715C-67.2131 385.715 -67.2131 385.715 -67.2131 385.445C-68.0241 383.823 -68.835 382.471 -69.3757 380.849C-71.5383 375.983 -73.4306 370.847 -75.0526 365.711C-76.1339 361.926 -77.2152 358.141 -78.0262 354.357C-78.5668 351.654 -79.1075 348.95 -79.3778 345.977C-80.1888 340.03 -80.7294 334.082 -80.7294 327.865C-80.7294 324.351 -80.4591 320.836 -80.1888 317.322C-79.9185 315.159 -79.6481 312.997 -79.3778 310.834C-77.7558 298.129 -74.2416 286.234 -69.1054 275.151C-66.6725 269.744 -63.6988 264.338 -60.4549 259.202C-55.0484 250.822 -48.8308 242.982 -41.532 236.224C-18.5542 213.787 13.0741 200 47.6759 200C49.0276 200 50.3792 200 51.7308 200C53.0825 200 54.7044 200 56.056 200.27C63.3549 200.811 70.6537 201.892 77.4119 203.514C81.4668 204.596 85.5217 205.677 89.3063 207.029C92.0096 207.84 94.4425 208.921 97.1458 210.002C99.038 210.813 100.93 211.624 102.823 212.435C103.093 212.705 103.363 212.705 103.904 212.976C116.339 218.923 127.693 227.033 137.424 236.765C138.776 238.116 140.128 239.468 141.479 240.819C142.29 241.901 143.372 242.712 144.183 243.793C145.805 245.415 147.156 247.307 148.508 248.929C153.644 255.417 157.969 262.446 161.754 269.744C166.079 278.395 169.593 287.586 172.026 297.047C173.648 306.779 175 317.052 175 327.865Z" fill="url(#paint0_radial_13_246)"/>
</g>
<g filter="url(#filter1_f_13_246)">
<path fill-rule="evenodd" clip-rule="evenodd" d="M175 327.865C175 340.3 173.378 352.194 170.134 363.278C163.646 385.985 150.941 405.989 134.181 421.668C122.286 432.752 107.959 441.673 92.5502 447.62C78.4932 453.026 63.0845 456 47.1352 456C44.9726 456 42.5397 456 40.3771 455.73C37.1331 455.459 33.6189 455.189 30.375 454.919C5.50488 451.675 -16.9323 441.402 -35.0442 425.994C-41.8023 420.317 -48.0199 413.829 -53.6967 406.8C-57.7516 401.664 -61.5362 395.987 -65.0505 390.04C-65.8615 388.688 -66.6724 387.337 -67.2131 385.715C-67.2131 385.715 -67.2131 385.715 -67.2131 385.445C-68.0241 383.823 -68.835 382.471 -69.3757 380.849C-71.5383 375.983 -73.4306 370.847 -75.0526 365.711C-76.1339 361.926 -77.2152 358.141 -78.0262 354.357C-78.5668 351.654 -79.1075 348.95 -79.3778 345.977C-80.1888 340.03 -80.7294 334.082 -80.7294 327.865C-80.7294 324.351 -80.4591 320.836 -80.1888 317.322C-79.9185 315.159 -79.6481 312.997 -79.3778 310.834C-77.7558 298.129 -74.2416 286.234 -69.1054 275.151C-66.6725 269.744 -63.6988 264.338 -60.4549 259.202C-55.0484 250.822 -48.8308 242.982 -41.532 236.224C-18.5542 213.787 13.0741 200 47.6759 200C49.0276 200 50.3792 200 51.7308 200C53.0825 200 54.7044 200 56.056 200.27C63.3549 200.811 70.6537 201.892 77.4119 203.514C81.4668 204.596 85.5217 205.677 89.3063 207.029C92.0096 207.84 94.4425 208.921 97.1458 210.002C99.038 210.813 100.93 211.624 102.823 212.435C103.093 212.705 103.363 212.705 103.904 212.976C116.339 218.923 127.693 227.033 137.424 236.765C138.776 238.116 140.128 239.468 141.479 240.819C142.29 241.901 143.372 242.712 144.183 243.793C145.805 245.415 147.156 247.307 148.508 248.929C153.644 255.417 157.969 262.446 161.754 269.744C166.079 278.395 169.593 287.586 172.026 297.047C173.648 306.779 175 317.052 175 327.865Z" fill="url(#paint1_radial_13_246)"/>
</g>
<path fill-rule="evenodd" clip-rule="evenodd" d="M175 327.865C175 340.3 173.378 352.194 170.134 363.278C163.646 385.985 150.941 405.989 134.181 421.668C122.286 432.752 107.959 441.673 92.5502 447.62C78.4932 453.026 63.0845 456 47.1352 456C44.9726 456 42.5397 456 40.3771 455.73C37.1331 455.459 33.6189 455.189 30.375 454.919C5.50488 451.675 -16.9323 441.402 -35.0442 425.994C-41.8023 420.317 -48.0199 413.829 -53.6967 406.8C-57.7516 401.664 -61.5362 395.987 -65.0505 390.04C-65.8615 388.688 -66.6724 387.337 -67.2131 385.715C-67.2131 385.715 -67.2131 385.715 -67.2131 385.445C-68.0241 383.823 -68.835 382.471 -69.3757 380.849C-71.5383 375.983 -73.4306 370.847 -75.0526 365.711C-76.1339 361.926 -77.2152 358.141 -78.0262 354.357C-78.5668 351.654 -79.1075 348.95 -79.3778 345.977C-80.1888 340.03 -80.7294 334.082 -80.7294 327.865C-80.7294 324.351 -80.4591 320.836 -80.1888 317.322C-79.9185 315.159 -79.6481 312.997 -79.3778 310.834C-77.7558 298.129 -74.2416 286.234 -69.1054 275.151C-66.6725 269.744 -63.6988 264.338 -60.4549 259.202C-55.0484 250.822 -48.8308 242.982 -41.532 236.224C-18.5542 213.787 13.0741 200 47.6759 200C49.0276 200 50.3792 200 51.7308 200C53.0825 200 54.7044 200 56.056 200.27C63.3549 200.811 70.6537 201.892 77.4119 203.514C81.4668 204.596 85.5217 205.677 89.3063 207.029C92.0096 207.84 94.4425 208.921 97.1458 210.002C99.038 210.813 100.93 211.624 102.823 212.435C103.093 212.705 103.363 212.705 103.904 212.976C116.339 218.923 127.693 227.033 137.424 236.765C138.776 238.116 140.128 239.468 141.479 240.819C142.29 241.901 143.372 242.712 144.183 243.793C145.805 245.415 147.156 247.307 148.508 248.929C153.644 255.417 157.969 262.446 161.754 269.744C166.079 278.395 169.593 287.586 172.026 297.047C173.648 306.779 175 317.052 175 327.865Z" fill="url(#paint2_radial_13_246)"/>
<path d="M79.8446 294.615C79.8446 293.534 83.449 294.164 85.2511 294.615H93.361C96.6049 294.615 92.0093 297.318 89.3061 298.669C87.9544 299.12 84.7105 300.021 82.5479 300.021C79.8446 300.021 79.8446 295.967 79.8446 294.615Z" fill="url(#paint3_linear_13_246)"/>
<path fill-rule="evenodd" clip-rule="evenodd" d="M103.093 212.705C102.552 212.705 102.282 212.705 101.741 212.975C100.389 213.246 99.0378 212.975 97.6862 212.705C96.6049 212.435 96.0642 211.894 94.7126 211.894C93.0906 211.624 91.739 211.083 90.117 210.813C88.4951 210.542 87.1434 210.002 85.5215 209.461C84.1699 208.92 83.6292 209.191 82.5479 209.461C81.4666 209.731 80.6556 209.191 79.5743 208.92C78.493 208.38 77.1414 208.38 76.06 208.109C72.8161 207.569 69.5722 206.487 66.3282 205.676C64.436 205.136 62.5437 205.136 60.3811 205.136C58.7591 205.136 57.4075 205.676 55.7855 205.676C54.7042 205.676 53.8932 205.406 52.8119 205.406C51.7306 205.136 50.6493 205.406 49.568 205.406C47.946 205.136 47.135 204.865 45.5131 205.406C44.1614 205.676 43.3504 205.676 41.9988 205.947C40.6472 205.947 39.0252 206.487 37.6736 206.758C35.2406 207.298 32.5374 207.839 30.1044 207.839C28.4825 207.839 26.3198 207.298 24.9682 207.839C24.1572 208.109 23.6166 209.191 22.8056 209.731C21.4539 211.083 20.1023 212.164 19.021 213.516C17.9397 214.868 16.8584 216.489 16.8584 218.382C16.8584 220.004 17.6694 221.896 18.4804 223.248C19.2914 224.87 19.5617 226.221 17.9397 227.303C16.0474 228.654 13.6145 229.735 11.4519 230.546C9.82989 231.087 8.47825 231.358 7.39694 230.276C6.85629 230.006 6.58596 229.195 6.04531 228.654C5.50465 228.384 4.69368 228.654 4.15302 228.925C2.53107 229.465 0.909096 230.006 -0.712868 230.276C-1.79417 230.547 -2.60513 231.087 -3.68644 231.087C-4.76775 231.357 -5.57877 230.546 -6.9304 230.817C-8.55236 231.087 -10.4446 231.898 -12.0666 231.898C-13.4182 231.898 -15.0402 231.357 -16.1215 230.817C-16.6622 230.546 -16.9325 230.006 -17.7435 230.276C-18.2841 230.276 -19.0951 231.087 -19.3654 231.628C-19.9061 232.169 -19.9061 232.979 -20.4468 233.52C-20.9874 234.331 -21.2577 234.872 -21.7984 235.683C-22.6094 237.034 -23.4203 238.386 -24.2313 239.738C-24.772 240.549 -25.3126 241.9 -26.1236 242.711C-26.3939 243.252 -27.2049 243.522 -27.7456 243.793C-29.0972 244.604 -30.4488 245.685 -31.8005 246.496C-34.2334 248.388 -36.6664 250.551 -39.0993 252.443C-40.9916 253.795 -43.6949 254.606 -45.8575 255.687C-47.2091 256.228 -48.5608 256.768 -49.9124 257.309C-50.453 257.579 -51.264 257.579 -51.5344 258.12C-52.075 258.661 -52.3453 259.201 -52.6157 260.012C-53.697 261.364 -55.0486 262.986 -55.8596 264.608C-56.4002 265.689 -56.6706 266.5 -57.2112 267.581C-57.7519 268.933 -58.5629 270.285 -58.8332 271.907C-59.9145 274.88 -59.9145 278.124 -61.2661 281.098C-61.8068 282.72 -62.8881 284.342 -63.6991 285.964C-65.0507 288.667 -65.321 291.911 -65.5914 294.884C-65.8617 296.506 -65.5913 298.669 -65.321 300.291C-65.0507 302.183 -65.0507 304.076 -65.0507 305.968C-65.0507 307.86 -66.4023 310.023 -67.4836 311.374C-68.565 312.726 -70.4573 313.267 -71.8089 314.618C-72.8902 315.7 -74.2418 316.781 -74.7825 318.403C-75.0528 318.943 -74.7825 319.755 -74.7825 320.566C-75.0528 322.187 -75.5935 323.539 -75.5935 325.161C-75.8638 327.053 -75.8638 328.946 -75.8638 331.108C-75.8638 332.19 -75.8638 333.001 -75.8638 334.082C-75.8638 335.163 -75.5934 335.974 -75.3231 336.785C-75.3231 337.326 -75.3231 338.137 -75.3231 338.677C-75.3231 339.488 -74.7825 340.299 -74.7825 340.84C-74.2418 342.732 -73.9715 344.354 -73.7012 346.247C-73.4309 347.869 -72.6199 349.49 -72.3495 351.112C-71.5386 353.275 -71.2682 355.438 -70.7276 357.871C-70.4572 359.493 -70.4572 361.385 -70.1869 363.007C-69.9166 364.358 -69.6463 365.71 -69.6463 367.062C-69.6463 369.224 -70.1869 371.117 -70.1869 373.279C-70.1869 376.794 -68.8353 380.308 -68.0243 383.822C-67.754 384.903 -67.4836 385.714 -67.2133 386.796C-76.1341 369.495 -81 349.761 -81 328.946C-81 303.535 -73.7012 280.016 -60.9958 260.282C-55.5893 251.902 -49.3717 244.063 -42.0729 237.305C-19.0951 214.867 12.5331 201.081 47.135 201.081C49.8383 201.081 52.8119 201.081 55.5152 201.351C72.2755 201.081 88.4951 205.406 103.093 212.705Z" fill="url(#paint4_linear_13_246)"/>
<path d="M71.7353 306.779C78.2231 307.861 87.0538 310.834 90.6581 312.186H98.7675C101.471 312.186 116.339 322.999 119.042 329.757C121.745 336.515 129.855 329.757 136.613 329.757C143.371 329.757 127.152 352.735 121.745 358.142C116.339 363.548 125.8 374.361 127.152 377.065C128.503 379.768 123.097 383.823 121.745 394.636C120.394 405.449 116.339 420.317 113.635 429.778C111.473 437.348 101.02 443.745 96.0642 445.998C94.2622 446.899 89.5768 447.079 85.2512 440.591C79.8442 432.482 77.1413 418.965 75.7897 413.559C74.4381 408.152 86.6028 379.768 62.2734 377.065C37.9439 374.361 51.4608 397.339 20.3732 374.361C-10.7144 351.383 24.4281 306.779 27.1314 302.725C29.8346 298.67 36.5928 302.724 48.7575 298.67C58.4893 295.426 68.1309 297.318 71.7353 298.67C69.032 300.922 65.2474 305.698 71.7353 306.779Z" fill="url(#paint5_linear_13_246)"/>
<path d="M-61.9496 382.523C-61.0642 379.903 -65.2701 371.244 -67.4838 367.242C-65.6391 364.695 -61.0642 360.256 -57.5223 362.875C-53.095 366.15 -39.8131 358.509 -35.3858 359.601C-30.9585 360.692 -20.997 361.784 -19.8902 365.059C-18.7834 368.333 -18.7834 375.974 -16.5697 379.249C-14.7988 381.868 -16.5697 389.072 -17.6765 392.347C-18.0455 393.438 -19.4475 395.84 -22.1038 396.713C-25.4243 397.805 -17.6765 397.805 -11.0356 399.988C-4.3946 402.171 -8.82191 413.086 -6.60826 418.544C-4.3946 424.002 7.78049 433.825 9.99415 436.008C12.2078 438.191 9.99415 441.466 7.78049 440.375C5.56684 439.283 -18.7834 419.635 -29.8516 417.452C-38.7063 415.706 -54.9397 398.532 -61.9496 390.164C-62.3186 388.709 -62.8351 385.143 -61.9496 382.523Z" fill="url(#paint6_linear_13_246)"/>
<path d="M136.613 378.416C139.857 378.416 142.47 373.009 143.371 370.306C144.495 367.603 147.426 367.603 148.778 368.954C150.13 370.306 148.778 385.174 144.723 391.932C140.668 398.69 136.613 397.339 133.91 397.339C131.208 397.339 133.91 391.932 136.613 389.229C139.317 386.526 132.558 378.416 136.613 378.416Z" fill="url(#paint7_linear_13_246)"/>
<path fill-rule="evenodd" clip-rule="evenodd" d="M98.7672 300.02C98.7672 304.345 96.0639 306.327 94.7123 306.778L102.822 310.834C102.372 309.482 102.822 306.778 108.229 306.778C111.608 306.778 114.649 312.185 117.69 317.591C120.732 322.998 123.773 328.405 127.152 328.405C133.91 328.405 150.13 318.944 154.185 314.889C157.429 311.645 152.833 306.329 150.13 304.076C149.229 306.779 144.994 309.753 135.262 300.02C123.097 287.854 127.152 285.152 135.262 290.558C141.75 294.883 146.075 294.163 147.426 293.262C149.229 292.361 154.725 291.64 162.294 295.966C169.864 300.291 169.954 330.208 169.053 344.625C171.756 333.812 176.081 308.942 171.756 295.966C158.24 255.416 142.02 240.548 127.152 227.032C115.258 216.219 85.2512 205.406 71.7349 201.352C68.1304 203.154 60.3808 208.11 58.2185 213.516C55.6782 219.868 54.3312 220.249 46.3232 222.517C45.8108 222.662 45.2712 222.815 44.7022 222.978C38.1705 224.844 38.0804 224.778 35.9831 223.223C35.0423 222.526 33.6976 221.53 31.1865 220.274C25.1664 217.264 16.9103 220.958 9.73817 224.167C7.24938 225.28 4.8911 226.336 2.80205 227.032C-5.3072 229.735 -12.0659 237.845 -12.0659 240.548C-12.0659 241.506 -12.7445 242.294 -13.3805 243.033C-14.5398 244.379 -15.5576 245.561 -12.0659 247.307C-8.51432 249.082 -5.54659 248.525 -2.3957 247.934C-0.749565 247.625 0.94656 247.307 2.80205 247.307C8.20915 247.307 5.50476 251.362 2.80205 254.065C0.0993385 256.768 -5.30833 258.12 -12.0659 259.471C-15.6782 260.194 -16.2012 262.461 -16.9377 265.654C-17.5789 268.434 -18.382 271.916 -21.5274 275.69C-25.4144 280.355 -26.7398 282.038 -27.0105 282.449C-29.2689 282.461 -32.8454 283.014 -29.6378 285.152L-29.6305 285.157C-25.578 287.859 -21.5306 290.558 -26.9345 290.558C-29.2978 290.558 -30.8862 292.366 -32.3771 294.062C-34.2973 296.247 -36.0557 298.248 -39.0992 295.966C-43.1541 292.925 -45.6881 296.726 -48.9826 301.667C-50.0807 303.315 -51.2633 305.088 -52.615 306.778C-56.0799 311.109 -55.1036 313.775 -53.9556 316.91C-53.3123 318.667 -52.615 320.571 -52.615 322.998C-52.615 326.497 -51.1662 326.373 -49.0186 326.19C-47.0175 326.019 -44.4097 325.797 -41.8019 328.405C-36.8025 333.404 -27.1801 326.846 -22.5531 323.693C-22.1764 323.436 -21.8327 323.202 -21.5274 322.998C-17.4725 320.295 -10.7143 300.02 -12.0659 295.966C-13.212 292.528 -4.64065 287.146 0.465065 283.94C1.38094 283.365 2.1853 282.86 2.80205 282.449C5.72436 280.5 8.64667 282.764 13.0868 286.205C14.8076 287.538 16.7565 289.048 19.0217 290.558C23.9939 293.873 23.8852 294.139 23.3684 295.407C23.0423 296.207 22.5537 297.405 23.0766 300.02C23.7524 303.399 24.4283 302.047 25.611 299.682C26.7937 297.317 28.4833 293.938 31.1865 293.262C36.5931 291.911 33.8898 286.504 25.78 285.152C17.6702 283.801 9.56037 275.69 13.6153 275.69H31.1865C37.9447 275.69 41.999 279.746 39.2958 282.449C36.5925 285.151 50.1088 290.558 54.1637 290.558C57.1246 290.558 55.0408 286.234 52.6484 281.27C51.7643 279.436 50.8381 277.514 50.1088 275.69C48.2239 270.978 52.9099 272.837 56.8363 274.395C58.5413 275.071 60.1031 275.69 60.9214 275.69C63.6242 275.69 64.9763 278.394 60.9214 282.449C56.8665 286.503 71.7345 290.558 75.7894 290.558H92.009C98.7672 290.558 98.7672 294.613 98.7672 300.02ZM67.6799 274.339C70.8337 274.79 77.682 275.421 79.8447 274.339C82.0073 273.258 88.8556 276.592 92.0094 278.394C93.8116 278.845 97.1456 279.205 96.0643 277.043C94.7126 274.339 86.6028 264.878 81.1963 266.23C75.7897 267.581 66.3283 272.987 67.6799 274.339Z" fill="url(#paint8_linear_13_246)"/>
<defs>
<filter id="filter0_f_13_246" x="-180.729" y="100" width="455.729" height="456" filterUnits="userSpaceOnUse" color-interpolation-filters="sRGB">
<feFlood flood-opacity="0" result="BackgroundImageFix"/>
<feBlend mode="normal" in="SourceGraphic" in2="BackgroundImageFix" result="shape"/>
<feGaussianBlur stdDeviation="50" result="effect1_foregroundBlur_13_246"/>
</filter>
<filter id="filter1_f_13_246" x="-280.729" y="0" width="655.729" height="656" filterUnits="userSpaceOnUse" color-interpolation-filters="sRGB">
<feFlood flood-opacity="0" result="BackgroundImageFix"/>
<feBlend mode="normal" in="SourceGraphic" in2="BackgroundImageFix" result="shape"/>
<feGaussianBlur stdDeviation="100" result="effect1_foregroundBlur_13_246"/>
</filter>
<radialGradient id="paint0_radial_13_246" cx="0" cy="0" r="1" gradientUnits="userSpaceOnUse" gradientTransform="translate(-32.3336 267.825) scale(205.723 205.723)">
<stop offset="0.00558659" stop-color="#0CB9C4"/>
<stop offset="0.2058" stop-color="#0C96C1"/>
<stop offset="0.3613" stop-color="#0B79B7"/>
<stop offset="0.5018" stop-color="#096EA7"/>
<stop offset="0.6334" stop-color="#075E8F"/>
<stop offset="0.7576" stop-color="#044A72"/>
<stop offset="0.8715" stop-color="#003C74"/>
</radialGradient>
<radialGradient id="paint1_radial_13_246" cx="0" cy="0" r="1" gradientUnits="userSpaceOnUse" gradientTransform="translate(-32.3336 267.825) scale(205.723 205.723)">
<stop offset="0.00558659" stop-color="#0CB9C4"/>
<stop offset="0.2058" stop-color="#0C96C1"/>
<stop offset="0.3613" stop-color="#0B79B7"/>
<stop offset="0.5018" stop-color="#096EA7"/>
<stop offset="0.6334" stop-color="#075E8F"/>
<stop offset="0.7576" stop-color="#044A72"/>
<stop offset="0.8715" stop-color="#003C74"/>
</radialGradient>
<radialGradient id="paint2_radial_13_246" cx="0" cy="0" r="1" gradientUnits="userSpaceOnUse" gradientTransform="translate(-32.3336 267.825) scale(205.723 205.723)">
<stop offset="0.00558659" stop-color="#0CB9C4"/>
<stop offset="0.2058" stop-color="#0C96C1"/>
<stop offset="0.3613" stop-color="#0B79B7"/>
<stop offset="0.5018" stop-color="#096EA7"/>
<stop offset="0.6334" stop-color="#075E8F"/>
<stop offset="0.7576" stop-color="#044A72"/>
<stop offset="0.8715" stop-color="#003C74"/>
</radialGradient>
<linearGradient id="paint3_linear_13_246" x1="87.1606" y1="294.018" x2="87.1606" y2="300.021" gradientUnits="userSpaceOnUse">
<stop stop-color="#43991F"/>
<stop offset="1" stop-color="#4BFF00" stop-opacity="0"/>
</linearGradient>
<linearGradient id="paint4_linear_13_246" x1="-81.0892" y1="292.592" x2="103.138" y2="292.592" gradientUnits="userSpaceOnUse">
<stop stop-color="#2CB3FF"/>
<stop offset="0.0885417" stop-color="#2CA6FF"/>
<stop offset="0.2325" stop-color="#2DCAFC"/>
<stop offset="0.3947" stop-color="#32AEF3"/>
<stop offset="0.5382" stop-color="#3A7EE3"/>
<stop offset="0.6707" stop-color="#446ACD"/>
<stop offset="0.7958" stop-color="#4268B1"/>
<stop offset="0.9136" stop-color="#1F598E"/>
<stop offset="1" stop-color="#005D72"/>
</linearGradient>
<linearGradient id="paint5_linear_13_246" x1="72.9227" y1="296.878" x2="72.9227" y2="446.455" gradientUnits="userSpaceOnUse">
<stop stop-color="#43991F"/>
<stop offset="1" stop-color="#4BFF00" stop-opacity="0"/>
</linearGradient>
<linearGradient id="paint6_linear_13_246" x1="-28.2863" y1="359.493" x2="-28.2863" y2="440.591" gradientUnits="userSpaceOnUse">
<stop stop-color="#43991F"/>
<stop offset="1" stop-color="#4BFF00" stop-opacity="0"/>
</linearGradient>
<linearGradient id="paint7_linear_13_246" x1="141.038" y1="368.066" x2="141.038" y2="397.449" gradientUnits="userSpaceOnUse">
<stop stop-color="#43991F"/>
<stop offset="1" stop-color="#4BFF00" stop-opacity="0"/>
</linearGradient>
<linearGradient id="paint8_linear_13_246" x1="59.2865" y1="201.352" x2="59.2865" y2="344.625" gradientUnits="userSpaceOnUse">
<stop stop-color="#43991F"/>
<stop offset="1" stop-color="#4BFF00" stop-opacity="0"/>
</linearGradient>
</defs>
</svg>
